<svg width="255" height="60" viewBox="0 0 255 60" fill="none" xmlns="http://www.w3.org/2000/svg">
<path d="M40 48V44C40 41.8783 39.1571 39.8434 37.6569 38.3431C36.1566 36.8429 34.1217 36 32 36H30C29.4696 36 28.9609 35.7893 28.5858 35.4142C28.2107 35.0391 28 34.5304 28 34V24C28 22.9391 27.5786 21.9217 26.8284 21.1716C26.0783 20.4214 25.0609 20 24 20C22.9391 20 21.9217 20.4214 21.1716 21.1716C20.4214 21.9217 20 22.9391 20 24V42L15.2 35.6C14.8274 35.1032 14.3443 34.7 13.7889 34.4223C13.2334 34.1446 12.621 34 12 34H11.132C9.402 34 8 35.402 8 37.132C8 37.7 8.154 38.258 8.446 38.744L14 48M24 14V12V14ZM36 26H38H36ZM10 26H12H10ZM14.686 16.686L13.272 15.272L14.686 16.686ZM33.314 16.686L34.728 15.272L33.314 16.686Z" fill="#4CAF4F"/>
<path d="M40 48V44C40 41.8783 39.1571 39.8434 37.6569 38.3431C36.1566 36.8429 34.1217 36 32 36H30C29.4696 36 28.9609 35.7893 28.5858 35.4142C28.2107 35.0391 28 34.5304 28 34V24C28 22.9391 27.5786 21.9217 26.8284 21.1716C26.0783 20.4214 25.0609 20 24 20V20C22.9391 20 21.9217 20.4214 21.1716 21.1716C20.4214 21.9217 20 22.9391 20 24V42L15.2 35.6C14.8274 35.1032 14.3443 34.7 13.7889 34.4223C13.2334 34.1446 12.621 34 12 34H11.132C9.402 34 8 35.402 8 37.132C8 37.7 8.154 38.258 8.446 38.744L14 48M24 14V12M36 26H38M10 26H12M14.686 16.686L13.272 15.272M33.314 16.686L34.728 15.272" stroke="#4CAF4F" stroke-width="2" stroke-linecap="round" stroke-linejoin="round"/>
<g clip-path="url(#clip0_16_1382)">
<path d="M73.2472 28.2784C71.7159 28.2784 70.3537 28.0298 69.1605 27.5327C67.974 27.0289 67.0426 26.3428 66.3665 25.4744C65.6903 24.6061 65.3523 23.6217 65.3523 22.5213C65.3523 21.6728 65.5445 20.8939 65.929 20.1847C66.3201 19.4688 66.8504 18.8755 67.5199 18.4048C68.1894 17.9276 68.9384 17.6226 69.767 17.4901V17.3509C68.6799 17.1321 67.7983 16.6051 67.1222 15.7699C66.446 14.928 66.108 13.9503 66.108 12.8366C66.108 11.7827 66.4162 10.8447 67.0327 10.0227C67.6491 9.19413 68.4943 8.54451 69.5682 8.07386C70.6487 7.59659 71.875 7.35795 73.2472 7.35795C74.6193 7.35795 75.8423 7.59659 76.9162 8.07386C77.9967 8.55114 78.8452 9.20407 79.4616 10.0327C80.0781 10.8546 80.3897 11.7893 80.3963 12.8366C80.3897 13.9569 80.045 14.9347 79.3622 15.7699C78.6795 16.6051 77.8045 17.1321 76.7372 17.3509V17.4901C77.5526 17.6226 78.2917 17.9276 78.9545 18.4048C79.6241 18.8755 80.1544 19.4688 80.5455 20.1847C80.9432 20.8939 81.1454 21.6728 81.152 22.5213C81.1454 23.6217 80.804 24.6061 80.1278 25.4744C79.4517 26.3428 78.517 27.0289 77.3239 27.5327C76.1373 28.0298 74.7784 28.2784 73.2472 28.2784ZM73.2472 25.1165C73.9299 25.1165 74.5265 24.9938 75.0369 24.7486C75.5473 24.4967 75.9451 24.152 76.2301 23.7145C76.5218 23.2704 76.6676 22.7599 76.6676 22.1832C76.6676 21.5933 76.5185 21.0729 76.2202 20.6222C75.9219 20.1648 75.5175 19.8068 75.0071 19.5483C74.4967 19.2831 73.91 19.1506 73.2472 19.1506C72.5909 19.1506 72.0043 19.2831 71.4872 19.5483C70.9702 19.8068 70.5625 20.1648 70.2642 20.6222C69.9725 21.0729 69.8267 21.5933 69.8267 22.1832C69.8267 22.7599 69.9692 23.2704 70.2543 23.7145C70.5393 24.152 70.9403 24.4967 71.4574 24.7486C71.9744 24.9938 72.571 25.1165 73.2472 25.1165ZM73.2472 16.0185C73.8172 16.0185 74.3243 15.9025 74.7685 15.6705C75.2126 15.4384 75.5606 15.117 75.8125 14.706C76.0644 14.295 76.1903 13.821 76.1903 13.2841C76.1903 12.7538 76.0644 12.2898 75.8125 11.892C75.5606 11.4877 75.2159 11.1728 74.7784 10.9474C74.3409 10.7154 73.8305 10.5994 73.2472 10.5994C72.6705 10.5994 72.16 10.7154 71.7159 10.9474C71.2718 11.1728 70.9238 11.4877 70.6719 11.892C70.4266 12.2898 70.304 12.7538 70.304 13.2841C70.304 13.821 70.4299 14.295 70.6818 14.706C70.9337 15.117 71.2817 15.4384 71.7259 15.6705C72.17 15.9025 72.6771 16.0185 73.2472 16.0185ZM84.1623 28V24.8977L91.4109 18.1861C92.0273 17.5895 92.5444 17.0526 92.962 16.5753C93.3862 16.098 93.7077 15.6307 93.9265 15.1733C94.1452 14.7093 94.2546 14.2088 94.2546 13.6719C94.2546 13.0753 94.1187 12.5616 93.8469 12.1307C93.5752 11.6932 93.204 11.3584 92.7333 11.1264C92.2627 10.8878 91.729 10.7685 91.1325 10.7685C90.5094 10.7685 89.9658 10.8944 89.5018 11.1463C89.0378 11.3982 88.6798 11.7595 88.4279 12.2301C88.176 12.7008 88.0501 13.2609 88.0501 13.9105H83.9634C83.9634 12.5781 84.265 11.4214 84.8683 10.4403C85.4715 9.45928 86.3166 8.70028 87.4038 8.16335C88.4909 7.62642 89.7437 7.35795 91.1623 7.35795C92.6206 7.35795 93.89 7.61648 94.9705 8.13352C96.0576 8.64394 96.9028 9.35322 97.506 10.2614C98.1093 11.1695 98.4109 12.2102 98.4109 13.3835C98.4109 14.1525 98.2584 14.9115 97.9535 15.6605C97.6552 16.4096 97.1216 17.2415 96.3526 18.1562C95.5837 19.0644 94.4999 20.1548 93.1012 21.4276L90.1282 24.3409V24.4801H98.6793V28H84.1623ZM109.396 28.2784C107.864 28.2784 106.502 28.0298 105.309 27.5327C104.122 27.0289 103.191 26.3428 102.515 25.4744C101.839 24.6061 101.501 23.6217 101.501 22.5213C101.501 21.6728 101.693 20.8939 102.077 20.1847C102.469 19.4688 102.999 18.8755 103.668 18.4048C104.338 17.9276 105.087 17.6226 105.915 17.4901V17.3509C104.828 17.1321 103.947 16.6051 103.271 15.7699C102.594 14.928 102.256 13.9503 102.256 12.8366C102.256 11.7827 102.565 10.8447 103.181 10.0227C103.798 9.19413 104.643 8.54451 105.717 8.07386C106.797 7.59659 108.023 7.35795 109.396 7.35795C110.768 7.35795 111.991 7.59659 113.065 8.07386C114.145 8.55114 114.994 9.20407 115.61 10.0327C116.227 10.8546 116.538 11.7893 116.545 12.8366C116.538 13.9569 116.193 14.9347 115.511 15.7699C114.828 16.6051 113.953 17.1321 112.886 17.3509V17.4901C113.701 17.6226 114.44 17.9276 115.103 18.4048C115.772 18.8755 116.303 19.4688 116.694 20.1847C117.092 20.8939 117.294 21.6728 117.3 22.5213C117.294 23.6217 116.952 24.6061 116.276 25.4744C115.6 26.3428 114.665 27.0289 113.472 27.5327C112.286 28.0298 110.927 28.2784 109.396 28.2784ZM109.396 25.1165C110.078 25.1165 110.675 24.9938 111.185 24.7486C111.696 24.4967 112.094 24.152 112.379 23.7145C112.67 23.2704 112.816 22.7599 112.816 22.1832C112.816 21.5933 112.667 21.0729 112.369 20.6222C112.07 20.1648 111.666 19.8068 111.156 19.5483C110.645 19.2831 110.058 19.1506 109.396 19.1506C108.739 19.1506 108.153 19.2831 107.636 19.5483C107.119 19.8068 106.711 20.1648 106.413 20.6222C106.121 21.0729 105.975 21.5933 105.975 22.1832C105.975 22.7599 106.118 23.2704 106.403 23.7145C106.688 24.152 107.089 24.4967 107.606 24.7486C108.123 24.9938 108.719 25.1165 109.396 25.1165ZM109.396 16.0185C109.966 16.0185 110.473 15.9025 110.917 15.6705C111.361 15.4384 111.709 15.117 111.961 14.706C112.213 14.295 112.339 13.821 112.339 13.2841C112.339 12.7538 112.213 12.2898 111.961 11.892C111.709 11.4877 111.364 11.1728 110.927 10.9474C110.489 10.7154 109.979 10.5994 109.396 10.5994C108.819 10.5994 108.308 10.7154 107.864 10.9474C107.42 11.1728 107.072 11.4877 106.82 11.892C106.575 12.2898 106.452 12.7538 106.452 13.2841C106.452 13.821 106.578 14.295 106.83 14.706C107.082 15.117 107.43 15.4384 107.874 15.6705C108.318 15.9025 108.826 16.0185 109.396 16.0185ZM124.38 25.2159L124.271 26.3097C124.184 27.1847 124.019 28.0563 123.773 28.9247C123.535 29.7997 123.283 30.5919 123.018 31.3011C122.759 32.0104 122.55 32.5672 122.391 32.9716H119.647C119.746 32.5805 119.882 32.0336 120.055 31.331C120.227 30.6349 120.389 29.8527 120.542 28.9844C120.694 28.116 120.79 27.2311 120.83 26.3295L120.88 25.2159H124.38ZM134.989 28.2784C133.458 28.2784 132.096 28.0298 130.903 27.5327C129.716 27.0289 128.785 26.3428 128.109 25.4744C127.433 24.6061 127.094 23.6217 127.094 22.5213C127.094 21.6728 127.287 20.8939 127.671 20.1847C128.062 19.4688 128.593 18.8755 129.262 18.4048C129.932 17.9276 130.681 17.6226 131.509 17.4901V17.3509C130.422 17.1321 129.54 16.6051 128.864 15.7699C128.188 14.928 127.85 13.9503 127.85 12.8366C127.85 11.7827 128.158 10.8447 128.775 10.0227C129.391 9.19413 130.237 8.54451 131.31 8.07386C132.391 7.59659 133.617 7.35795 134.989 7.35795C136.362 7.35795 137.585 7.59659 138.658 8.07386C139.739 8.55114 140.587 9.20407 141.204 10.0327C141.82 10.8546 142.132 11.7893 142.138 12.8366C142.132 13.9569 141.787 14.9347 141.104 15.7699C140.422 16.6051 139.547 17.1321 138.479 17.3509V17.4901C139.295 17.6226 140.034 17.9276 140.697 18.4048C141.366 18.8755 141.897 19.4688 142.288 20.1847C142.685 20.8939 142.888 21.6728 142.894 22.5213C142.888 23.6217 142.546 24.6061 141.87 25.4744C141.194 26.3428 140.259 27.0289 139.066 27.5327C137.879 28.0298 136.521 28.2784 134.989 28.2784ZM134.989 25.1165C135.672 25.1165 136.269 24.9938 136.779 24.7486C137.29 24.4967 137.687 24.152 137.972 23.7145C138.264 23.2704 138.41 22.7599 138.41 22.1832C138.41 21.5933 138.261 21.0729 137.962 20.6222C137.664 20.1648 137.26 19.8068 136.749 19.5483C136.239 19.2831 135.652 19.1506 134.989 19.1506C134.333 19.1506 133.746 19.2831 133.229 19.5483C132.712 19.8068 132.305 20.1648 132.006 20.6222C131.715 21.0729 131.569 21.5933 131.569 22.1832C131.569 22.7599 131.711 23.2704 131.996 23.7145C132.281 24.152 132.683 24.4967 133.2 24.7486C133.717 24.9938 134.313 25.1165 134.989 25.1165ZM134.989 16.0185C135.559 16.0185 136.067 15.9025 136.511 15.6705C136.955 15.4384 137.303 15.117 137.555 14.706C137.807 14.295 137.933 13.821 137.933 13.2841C137.933 12.7538 137.807 12.2898 137.555 11.892C137.303 11.4877 136.958 11.1728 136.521 10.9474C136.083 10.7154 135.573 10.5994 134.989 10.5994C134.413 10.5994 133.902 10.7154 133.458 10.9474C133.014 11.1728 132.666 11.4877 132.414 11.892C132.169 12.2898 132.046 12.7538 132.046 13.2841C132.046 13.821 132.172 14.295 132.424 14.706C132.676 15.117 133.024 15.4384 133.468 15.6705C133.912 15.9025 134.419 16.0185 134.989 16.0185ZM153.72 28.2784C152.672 28.2718 151.662 28.0961 150.687 27.7514C149.719 27.4067 148.851 26.8466 148.082 26.071C147.313 25.2955 146.703 24.268 146.252 22.9886C145.808 21.7093 145.586 20.1383 145.586 18.2756C145.593 16.5653 145.788 15.0374 146.173 13.6918C146.564 12.3395 147.121 11.1927 147.843 10.2514C148.573 9.31013 149.444 8.59422 150.458 8.10369C151.473 7.60653 152.609 7.35795 153.869 7.35795C155.228 7.35795 156.428 7.62311 157.468 8.15341C158.509 8.67708 159.344 9.38968 159.974 10.2912C160.61 11.1927 160.995 12.2036 161.127 13.3239H156.882C156.716 12.6146 156.368 12.0578 155.838 11.6534C155.307 11.2491 154.651 11.0469 153.869 11.0469C152.543 11.0469 151.536 11.6236 150.846 12.777C150.163 13.9304 149.815 15.4981 149.802 17.4801H149.941C150.246 16.8769 150.657 16.3632 151.174 15.9389C151.698 15.508 152.291 15.1799 152.954 14.9545C153.624 14.7225 154.33 14.6065 155.072 14.6065C156.279 14.6065 157.352 14.8916 158.294 15.4616C159.235 16.0251 159.977 16.8007 160.521 17.7884C161.065 18.776 161.336 19.9062 161.336 21.179C161.336 22.5578 161.015 23.7841 160.372 24.858C159.735 25.9318 158.844 26.7737 157.697 27.3835C156.557 27.9867 155.231 28.285 153.72 28.2784ZM153.7 24.8977C154.363 24.8977 154.956 24.7386 155.48 24.4205C156.003 24.1023 156.414 23.6714 156.713 23.1278C157.011 22.5843 157.16 21.9744 157.16 21.2983C157.16 20.6222 157.011 20.0156 156.713 19.4787C156.421 18.9418 156.017 18.5142 155.5 18.196C154.983 17.8778 154.393 17.7188 153.73 17.7188C153.233 17.7188 152.772 17.8116 152.348 17.9972C151.93 18.1828 151.562 18.4413 151.244 18.7727C150.932 19.1042 150.687 19.4886 150.508 19.9261C150.329 20.357 150.24 20.8177 150.24 21.3082C150.24 21.9645 150.389 22.5644 150.687 23.108C150.992 23.6515 151.403 24.0857 151.92 24.4105C152.444 24.7353 153.037 24.8977 153.7 24.8977ZM165.194 28L173.636 11.2955V11.1562H163.802V7.63636H178.091V11.206L169.639 28H165.194Z" fill="#4D4D4D"/>
<path d="M65.4091 54V42.3636H72.4318V43.6136H66.8182V47.5455H72.0682V48.7955H66.8182V52.75H72.5227V54H65.4091ZM81.9261 45.2727L78.6989 54H77.3352L74.108 45.2727H75.5625L77.9716 52.2273H78.0625L80.4716 45.2727H81.9261ZM87.0426 54.1818C86.2017 54.1818 85.4763 53.9962 84.8665 53.625C84.2604 53.25 83.7926 52.7273 83.4631 52.0568C83.1373 51.3826 82.9744 50.5985 82.9744 49.7045C82.9744 48.8106 83.1373 48.0227 83.4631 47.3409C83.7926 46.6553 84.2509 46.1212 84.8381 45.7386C85.429 45.3523 86.1184 45.1591 86.9062 45.1591C87.3608 45.1591 87.8097 45.2348 88.2528 45.3864C88.696 45.5379 89.0994 45.7841 89.4631 46.125C89.8267 46.4621 90.1165 46.9091 90.3324 47.4659C90.5483 48.0227 90.6562 48.7083 90.6562 49.5227V50.0909H83.929V48.9318H89.2926C89.2926 48.4394 89.1941 48 88.9972 47.6136C88.804 47.2273 88.5275 46.9223 88.1676 46.6989C87.8116 46.4754 87.3911 46.3636 86.9062 46.3636C86.3722 46.3636 85.91 46.4962 85.5199 46.7614C85.1335 47.0227 84.8362 47.3636 84.6278 47.7841C84.4195 48.2045 84.3153 48.6553 84.3153 49.1364V49.9091C84.3153 50.5682 84.429 51.1269 84.6562 51.5852C84.8873 52.0398 85.2074 52.3864 85.6165 52.625C86.0256 52.8598 86.5009 52.9773 87.0426 52.9773C87.3949 52.9773 87.7131 52.928 87.9972 52.8295C88.285 52.7273 88.5331 52.5758 88.7415 52.375C88.9498 52.1705 89.1108 51.9167 89.2244 51.6136L90.5199 51.9773C90.3835 52.4167 90.1544 52.803 89.8324 53.1364C89.5104 53.4659 89.1127 53.7235 88.6392 53.9091C88.1657 54.0909 87.6335 54.1818 87.0426 54.1818ZM94.0369 48.75V54H92.696V45.2727H93.9915V46.6364H94.1051C94.3097 46.1932 94.6203 45.8371 95.0369 45.5682C95.4536 45.2955 95.9915 45.1591 96.6506 45.1591C97.2415 45.1591 97.7585 45.2803 98.2017 45.5227C98.6449 45.7614 98.9896 46.125 99.2358 46.6136C99.482 47.0985 99.6051 47.7121 99.6051 48.4545V54H98.2642V48.5455C98.2642 47.8598 98.0862 47.3258 97.7301 46.9432C97.3741 46.5568 96.8854 46.3636 96.2642 46.3636C95.8362 46.3636 95.4536 46.4564 95.1165 46.642C94.7831 46.8277 94.5199 47.0985 94.3267 47.4545C94.1335 47.8106 94.0369 48.2424 94.0369 48.75ZM105.851 45.2727V46.4091H101.328V45.2727H105.851ZM102.646 43.1818H103.987V51.5C103.987 51.8788 104.042 52.1629 104.152 52.3523C104.266 52.5379 104.41 52.6629 104.584 52.7273C104.762 52.7879 104.949 52.8182 105.146 52.8182C105.294 52.8182 105.415 52.8106 105.51 52.7955C105.605 52.7765 105.68 52.7614 105.737 52.75L106.01 53.9545C105.919 53.9886 105.792 54.0227 105.629 54.0568C105.466 54.0947 105.26 54.1136 105.01 54.1136C104.631 54.1136 104.26 54.0322 103.896 53.8693C103.536 53.7064 103.237 53.4583 102.999 53.125C102.764 52.7917 102.646 52.3712 102.646 51.8636V43.1818ZM112.55 54V42.3636H116.618C117.429 42.3636 118.097 42.5038 118.624 42.7841C119.15 43.0606 119.542 43.4337 119.8 43.9034C120.057 44.3693 120.186 44.8864 120.186 45.4545C120.186 45.9545 120.097 46.3674 119.919 46.6932C119.745 47.0189 119.514 47.2765 119.226 47.4659C118.942 47.6553 118.633 47.7955 118.3 47.8864V48C118.656 48.0227 119.014 48.1477 119.374 48.375C119.733 48.6023 120.035 48.928 120.277 49.3523C120.519 49.7765 120.641 50.2955 120.641 50.9091C120.641 51.4924 120.508 52.017 120.243 52.483C119.978 52.9489 119.559 53.3182 118.987 53.5909C118.415 53.8636 117.671 54 116.754 54H112.55ZM113.959 52.75H116.754C117.675 52.75 118.328 52.572 118.714 52.2159C119.105 51.8561 119.3 51.4205 119.3 50.9091C119.3 50.5152 119.199 50.1515 118.999 49.8182C118.798 49.4811 118.512 49.2121 118.141 49.0114C117.769 48.8068 117.33 48.7045 116.822 48.7045H113.959V52.75ZM113.959 47.4773H116.572C116.997 47.4773 117.379 47.3939 117.72 47.2273C118.065 47.0606 118.338 46.8258 118.538 46.5227C118.743 46.2197 118.845 45.8636 118.845 45.4545C118.845 44.9432 118.667 44.5095 118.311 44.1534C117.955 43.7936 117.391 43.6136 116.618 43.6136H113.959V47.4773ZM126.32 54.1818C125.532 54.1818 124.84 53.9943 124.246 53.6193C123.655 53.2443 123.193 52.7197 122.859 52.0455C122.53 51.3712 122.365 50.5833 122.365 49.6818C122.365 48.7727 122.53 47.9792 122.859 47.3011C123.193 46.6231 123.655 46.0966 124.246 45.7216C124.84 45.3466 125.532 45.1591 126.32 45.1591C127.107 45.1591 127.797 45.3466 128.388 45.7216C128.982 46.0966 129.445 46.6231 129.774 47.3011C130.107 47.9792 130.274 48.7727 130.274 49.6818C130.274 50.5833 130.107 51.3712 129.774 52.0455C129.445 52.7197 128.982 53.2443 128.388 53.6193C127.797 53.9943 127.107 54.1818 126.32 54.1818ZM126.32 52.9773C126.918 52.9773 127.411 52.8239 127.797 52.517C128.183 52.2102 128.469 51.8068 128.655 51.3068C128.84 50.8068 128.933 50.2652 128.933 49.6818C128.933 49.0985 128.84 48.5549 128.655 48.0511C128.469 47.5473 128.183 47.1402 127.797 46.8295C127.411 46.5189 126.918 46.3636 126.32 46.3636C125.721 46.3636 125.229 46.5189 124.842 46.8295C124.456 47.1402 124.17 47.5473 123.984 48.0511C123.799 48.5549 123.706 49.0985 123.706 49.6818C123.706 50.2652 123.799 50.8068 123.984 51.3068C124.17 51.8068 124.456 52.2102 124.842 52.517C125.229 52.8239 125.721 52.9773 126.32 52.9773ZM135.866 54.1818C135.079 54.1818 134.387 53.9943 133.793 53.6193C133.202 53.2443 132.74 52.7197 132.406 52.0455C132.077 51.3712 131.912 50.5833 131.912 49.6818C131.912 48.7727 132.077 47.9792 132.406 47.3011C132.74 46.6231 133.202 46.0966 133.793 45.7216C134.387 45.3466 135.079 45.1591 135.866 45.1591C136.654 45.1591 137.344 45.3466 137.935 45.7216C138.529 46.0966 138.991 46.6231 139.321 47.3011C139.654 47.9792 139.821 48.7727 139.821 49.6818C139.821 50.5833 139.654 51.3712 139.321 52.0455C138.991 52.7197 138.529 53.2443 137.935 53.6193C137.344 53.9943 136.654 54.1818 135.866 54.1818ZM135.866 52.9773C136.465 52.9773 136.957 52.8239 137.344 52.517C137.73 52.2102 138.016 51.8068 138.202 51.3068C138.387 50.8068 138.48 50.2652 138.48 49.6818C138.48 49.0985 138.387 48.5549 138.202 48.0511C138.016 47.5473 137.73 47.1402 137.344 46.8295C136.957 46.5189 136.465 46.3636 135.866 46.3636C135.268 46.3636 134.776 46.5189 134.389 46.8295C134.003 47.1402 133.717 47.5473 133.531 48.0511C133.346 48.5549 133.253 49.0985 133.253 49.6818C133.253 50.2652 133.346 50.8068 133.531 51.3068C133.717 51.8068 134.003 52.2102 134.389 52.517C134.776 52.8239 135.268 52.9773 135.866 52.9773ZM143.118 50.8182L143.095 49.1591H143.368L147.186 45.2727H148.845L144.777 49.3864H144.663L143.118 50.8182ZM141.868 54V42.3636H143.209V54H141.868ZM147.413 54L144.004 49.6818L144.959 48.75L149.118 54H147.413ZM150.571 54V45.2727H151.912V54H150.571ZM151.253 43.8182C150.991 43.8182 150.766 43.7292 150.577 43.5511C150.391 43.3731 150.298 43.1591 150.298 42.9091C150.298 42.6591 150.391 42.4451 150.577 42.267C150.766 42.089 150.991 42 151.253 42C151.514 42 151.738 42.089 151.923 42.267C152.113 42.4451 152.207 42.6591 152.207 42.9091C152.207 43.1591 152.113 43.3731 151.923 43.5511C151.738 43.7292 151.514 43.8182 151.253 43.8182ZM155.709 48.75V54H154.368V45.2727H155.663V46.6364H155.777C155.982 46.1932 156.292 45.8371 156.709 45.5682C157.125 45.2955 157.663 45.1591 158.322 45.1591C158.913 45.1591 159.43 45.2803 159.874 45.5227C160.317 45.7614 160.661 46.125 160.908 46.6136C161.154 47.0985 161.277 47.7121 161.277 48.4545V54H159.936V48.5455C159.936 47.8598 159.758 47.3258 159.402 46.9432C159.046 46.5568 158.557 46.3636 157.936 46.3636C157.508 46.3636 157.125 46.4564 156.788 46.642C156.455 46.8277 156.192 47.0985 155.999 47.4545C155.805 47.8106 155.709 48.2424 155.709 48.75ZM167.25 57.4545C166.602 57.4545 166.045 57.3712 165.58 57.2045C165.114 57.0417 164.725 56.8258 164.415 56.5568C164.108 56.2917 163.864 56.0076 163.682 55.7045L164.75 54.9545C164.871 55.1136 165.025 55.2955 165.21 55.5C165.396 55.7083 165.65 55.8883 165.972 56.0398C166.297 56.1951 166.723 56.2727 167.25 56.2727C167.955 56.2727 168.536 56.1023 168.994 55.7614C169.453 55.4205 169.682 54.8864 169.682 54.1591V52.3864H169.568C169.47 52.5455 169.33 52.7424 169.148 52.9773C168.97 53.2083 168.712 53.4148 168.375 53.5966C168.042 53.7746 167.591 53.8636 167.023 53.8636C166.318 53.8636 165.686 53.697 165.125 53.3636C164.568 53.0303 164.127 52.5455 163.801 51.9091C163.479 51.2727 163.318 50.5 163.318 49.5909C163.318 48.697 163.475 47.9186 163.79 47.2557C164.104 46.589 164.542 46.0739 165.102 45.7102C165.663 45.3428 166.311 45.1591 167.045 45.1591C167.614 45.1591 168.064 45.2538 168.398 45.4432C168.735 45.6288 168.992 45.8409 169.17 46.0795C169.352 46.3144 169.492 46.5076 169.591 46.6591H169.727V45.2727H171.023V54.25C171.023 55 170.852 55.6098 170.511 56.0795C170.174 56.553 169.72 56.8996 169.148 57.1193C168.58 57.3428 167.947 57.4545 167.25 57.4545ZM167.205 52.6591C167.742 52.6591 168.197 52.536 168.568 52.2898C168.939 52.0436 169.222 51.6894 169.415 51.2273C169.608 50.7652 169.705 50.2121 169.705 49.5682C169.705 48.9394 169.61 48.3845 169.42 47.9034C169.231 47.4223 168.951 47.0455 168.58 46.7727C168.208 46.5 167.75 46.3636 167.205 46.3636C166.636 46.3636 166.163 46.5076 165.784 46.7955C165.409 47.0833 165.127 47.4697 164.938 47.9545C164.752 48.4394 164.659 48.9773 164.659 49.5682C164.659 50.1742 164.754 50.7102 164.943 51.1761C165.136 51.6383 165.42 52.0019 165.795 52.267C166.174 52.5284 166.644 52.6591 167.205 52.6591ZM179.659 47.2273L178.455 47.5682C178.379 47.3674 178.267 47.1723 178.119 46.983C177.975 46.7898 177.778 46.6307 177.528 46.5057C177.278 46.3807 176.958 46.3182 176.568 46.3182C176.034 46.3182 175.589 46.4413 175.233 46.6875C174.881 46.9299 174.705 47.2386 174.705 47.6136C174.705 47.947 174.826 48.2102 175.068 48.4034C175.311 48.5966 175.689 48.7576 176.205 48.8864L177.5 49.2045C178.28 49.3939 178.862 49.6837 179.244 50.0739C179.627 50.4602 179.818 50.9583 179.818 51.5682C179.818 52.0682 179.674 52.5152 179.386 52.9091C179.102 53.303 178.705 53.6136 178.193 53.8409C177.682 54.0682 177.087 54.1818 176.409 54.1818C175.519 54.1818 174.782 53.9886 174.199 53.6023C173.616 53.2159 173.246 52.6515 173.091 51.9091L174.364 51.5909C174.485 52.0606 174.714 52.4129 175.051 52.6477C175.392 52.8826 175.837 53 176.386 53C177.011 53 177.508 52.8674 177.875 52.6023C178.246 52.3333 178.432 52.0114 178.432 51.6364C178.432 51.3333 178.326 51.0795 178.114 50.875C177.902 50.6667 177.576 50.5114 177.136 50.4091L175.682 50.0682C174.883 49.8788 174.295 49.5852 173.92 49.1875C173.549 48.786 173.364 48.2841 173.364 47.6818C173.364 47.1894 173.502 46.7538 173.778 46.375C174.059 45.9962 174.439 45.6989 174.92 45.483C175.405 45.267 175.955 45.1591 176.568 45.1591C177.432 45.1591 178.11 45.3485 178.602 45.7273C179.098 46.1061 179.451 46.6061 179.659 47.2273Z" fill="#717171"/>
</g>
<defs>
<clipPath id="clip0_16_1382">
<rect width="191" height="60" fill="white" transform="translate(64)"/>
</clipPath>
</defs>
</svg>
