<svg width="255" height="60" viewBox="0 0 255 60" fill="none" xmlns="http://www.w3.org/2000/svg">
<path d="M9.75 14H38.25C39.9076 14 41.4968 14.659 42.6689 15.8311C43.841 17.0032 44.5 18.5924 44.5 20.25V39.75C44.5 41.4076 43.841 42.9968 42.6689 44.1689C41.4968 45.341 39.9076 46 38.25 46H9.75C8.0924 46 6.50316 45.341 5.33105 44.1689C4.15895 42.9968 3.5 41.4076 3.5 39.75V20.25C3.5 18.5924 4.15895 17.0032 5.33105 15.8311C6.50316 14.659 8.0924 14 9.75 14ZM5.5 39.75C5.5 40.8772 5.94809 41.9579 6.74512 42.7549C7.54215 43.5519 8.62283 44 9.75 44H38.25C39.3772 44 40.4579 43.5519 41.2549 42.7549C42.0519 41.9579 42.5 40.8772 42.5 39.75V25H5.5V39.75ZM31.5 35H36C36.2652 35 36.5195 35.1054 36.707 35.293C36.8946 35.4805 37 35.7348 37 36C37 36.2652 36.8946 36.5195 36.707 36.707C36.5195 36.8946 36.2652 37 36 37H31.5C31.2348 37 30.9805 36.8946 30.793 36.707C30.6054 36.5195 30.5 36.2652 30.5 36C30.5 35.7348 30.6054 35.4805 30.793 35.293C30.9805 35.1054 31.2348 35 31.5 35ZM9.75 16C8.62283 16 7.54215 16.4481 6.74512 17.2451C5.94809 18.0421 5.5 19.1228 5.5 20.25V23H42.5V20.25C42.5 19.1228 42.0519 18.0421 41.2549 17.2451C40.4579 16.4481 39.3772 16 38.25 16H9.75Z" fill="#4CAF4F" stroke="#4CAF4F"/>
<g clip-path="url(#clip0_16_1393)">
<path d="M74.5099 7.63636V28H70.2045V11.723H70.0852L65.4219 14.6463V10.8281L70.4631 7.63636H74.5099ZM82.8995 25.2159L82.7901 26.3097C82.704 27.1847 82.5382 28.0563 82.293 28.9247C82.0543 29.7997 81.8024 30.5919 81.5373 31.3011C81.2788 32.0104 81.07 32.5672 80.9109 32.9716H78.1665C78.266 32.5805 78.4019 32.0336 78.5742 31.331C78.7466 30.6349 78.909 29.8527 79.0614 28.9844C79.2139 28.116 79.31 27.2311 79.3498 26.3295L79.3995 25.2159H82.8995ZM93.7177 7.35795C94.765 7.35795 95.7726 7.53362 96.7404 7.88494C97.7148 8.23627 98.5832 8.7964 99.3455 9.56534C100.114 10.3343 100.721 11.3551 101.165 12.6278C101.616 13.8939 101.845 15.4484 101.851 17.2912C101.851 19.0213 101.656 20.5658 101.265 21.9247C100.88 23.277 100.327 24.4271 99.604 25.375C98.8815 26.3229 98.0098 27.0455 96.989 27.5426C95.9682 28.0331 94.828 28.2784 93.5685 28.2784C92.2096 28.2784 91.0098 28.0166 89.9691 27.4929C88.9284 26.9626 88.0898 26.2434 87.4535 25.3352C86.8237 24.4205 86.4426 23.393 86.31 22.2528H90.5558C90.7215 22.9953 91.0695 23.572 91.5998 23.983C92.1301 24.3873 92.7863 24.5895 93.5685 24.5895C94.8943 24.5895 95.9019 24.0128 96.5913 22.8594C97.2807 21.6993 97.6287 20.1117 97.6353 18.0966H97.4961C97.1912 18.6932 96.7802 19.2069 96.2631 19.6378C95.7461 20.062 95.1528 20.3902 94.4833 20.6222C93.8204 20.8542 93.1145 20.9702 92.3654 20.9702C91.1656 20.9702 90.0951 20.6884 89.1538 20.125C88.2125 19.5616 87.4701 18.786 86.9265 17.7983C86.3829 16.8106 86.1112 15.6837 86.1112 14.4176C86.1045 13.0521 86.4194 11.8357 87.0558 10.7685C87.6921 9.70123 88.5804 8.866 89.7205 8.26278C90.8673 7.65293 92.1997 7.35132 93.7177 7.35795ZM93.7475 10.7386C93.078 10.7386 92.4814 10.8977 91.9577 11.2159C91.4407 11.5341 91.0297 11.9616 90.7248 12.4986C90.4265 13.0355 90.2807 13.6354 90.2873 14.2983C90.2873 14.9678 90.4331 15.571 90.7248 16.108C91.0231 16.6383 91.4274 17.0625 91.9379 17.3807C92.4549 17.6922 93.0449 17.848 93.7077 17.848C94.2049 17.848 94.6656 17.7552 95.0898 17.5696C95.5141 17.384 95.882 17.1288 96.1935 16.804C96.5117 16.4725 96.7603 16.0914 96.9393 15.6605C97.1183 15.2296 97.2077 14.7723 97.2077 14.2884C97.2011 13.6454 97.0487 13.0554 96.7504 12.5185C96.4521 11.9815 96.0411 11.5507 95.5174 11.2259C94.9937 10.901 94.4038 10.7386 93.7475 10.7386ZM104.834 28V24.8977L112.083 18.1861C112.699 17.5895 113.216 17.0526 113.634 16.5753C114.058 16.098 114.38 15.6307 114.598 15.1733C114.817 14.7093 114.926 14.2088 114.926 13.6719C114.926 13.0753 114.791 12.5616 114.519 12.1307C114.247 11.6932 113.876 11.3584 113.405 11.1264C112.935 10.8878 112.401 10.7685 111.804 10.7685C111.181 10.7685 110.638 10.8944 110.174 11.1463C109.71 11.3982 109.352 11.7595 109.1 12.2301C108.848 12.7008 108.722 13.2609 108.722 13.9105H104.635C104.635 12.5781 104.937 11.4214 105.54 10.4403C106.143 9.45928 106.989 8.70028 108.076 8.16335C109.163 7.62642 110.416 7.35795 111.834 7.35795C113.292 7.35795 114.562 7.61648 115.642 8.13352C116.73 8.64394 117.575 9.35322 118.178 10.2614C118.781 11.1695 119.083 12.2102 119.083 13.3835C119.083 14.1525 118.93 14.9115 118.625 15.6605C118.327 16.4096 117.793 17.2415 117.025 18.1562C116.256 19.0644 115.172 20.1548 113.773 21.4276L110.8 24.3409V24.4801H119.351V28H104.834ZM130.286 28.2784C129.239 28.2718 128.228 28.0961 127.254 27.7514C126.286 27.4067 125.417 26.8466 124.648 26.071C123.879 25.2955 123.27 24.268 122.819 22.9886C122.375 21.7093 122.153 20.1383 122.153 18.2756C122.159 16.5653 122.355 15.0374 122.739 13.6918C123.13 12.3395 123.687 11.1927 124.41 10.2514C125.139 9.31013 126.011 8.59422 127.025 8.10369C128.039 7.60653 129.176 7.35795 130.435 7.35795C131.794 7.35795 132.994 7.62311 134.035 8.15341C135.076 8.67708 135.911 9.38968 136.54 10.2912C137.177 11.1927 137.561 12.2036 137.694 13.3239H133.448C133.282 12.6146 132.934 12.0578 132.404 11.6534C131.874 11.2491 131.218 11.0469 130.435 11.0469C129.11 11.0469 128.102 11.6236 127.413 12.777C126.73 13.9304 126.382 15.4981 126.369 17.4801H126.508C126.813 16.8769 127.224 16.3632 127.741 15.9389C128.264 15.508 128.858 15.1799 129.521 14.9545C130.19 14.7225 130.896 14.6065 131.638 14.6065C132.845 14.6065 133.919 14.8916 134.86 15.4616C135.801 16.0251 136.544 16.8007 137.087 17.7884C137.631 18.776 137.903 19.9062 137.903 21.179C137.903 22.5578 137.581 23.7841 136.938 24.858C136.302 25.9318 135.41 26.7737 134.263 27.3835C133.123 27.9867 131.798 28.285 130.286 28.2784ZM130.266 24.8977C130.929 24.8977 131.522 24.7386 132.046 24.4205C132.57 24.1023 132.981 23.6714 133.279 23.1278C133.577 22.5843 133.727 21.9744 133.727 21.2983C133.727 20.6222 133.577 20.0156 133.279 19.4787C132.987 18.9418 132.583 18.5142 132.066 18.196C131.549 17.8778 130.959 17.7188 130.296 17.7188C129.799 17.7188 129.338 17.8116 128.914 17.9972C128.496 18.1828 128.129 18.4413 127.81 18.7727C127.499 19.1042 127.254 19.4886 127.075 19.9261C126.896 20.357 126.806 20.8177 126.806 21.3082C126.806 21.9645 126.955 22.5644 127.254 23.108C127.558 23.6515 127.969 24.0857 128.487 24.4105C129.01 24.7353 129.603 24.8977 130.266 24.8977ZM144.751 25.2159L144.642 26.3097C144.556 27.1847 144.39 28.0563 144.145 28.9247C143.906 29.7997 143.654 30.5919 143.389 31.3011C143.13 32.0104 142.922 32.5672 142.762 32.9716H140.018C140.118 32.5805 140.253 32.0336 140.426 31.331C140.598 30.6349 140.761 29.8527 140.913 28.9844C141.065 28.116 141.162 27.2311 141.201 26.3295L141.251 25.2159H144.751ZM148.276 24.4205V21.0298L156.777 7.63636H159.701V12.3295H157.971L152.611 20.8111V20.9702H164.692V24.4205H148.276ZM158.05 28V23.3864L158.13 21.8849V7.63636H162.167V28H158.05ZM175.088 28.2784C173.603 28.2784 172.28 28.0232 171.12 27.5128C169.967 26.9957 169.056 26.2865 168.386 25.3849C167.723 24.4768 167.382 23.4295 167.362 22.2429H171.697C171.724 22.7401 171.886 23.1776 172.184 23.5554C172.489 23.9266 172.894 24.215 173.397 24.4205C173.901 24.6259 174.468 24.7287 175.098 24.7287C175.754 24.7287 176.334 24.6127 176.838 24.3807C177.342 24.1487 177.736 23.8272 178.021 23.4162C178.306 23.0052 178.449 22.5312 178.449 21.9943C178.449 21.4508 178.296 20.9702 177.991 20.5526C177.693 20.1283 177.262 19.7969 176.699 19.5582C176.142 19.3196 175.479 19.2003 174.71 19.2003H172.811V16.0384H174.71C175.359 16.0384 175.933 15.9257 176.43 15.7003C176.934 15.4749 177.325 15.1634 177.603 14.7656C177.882 14.3613 178.021 13.8906 178.021 13.3537C178.021 12.8433 177.898 12.3958 177.653 12.0114C177.414 11.6203 177.076 11.3153 176.639 11.0966C176.208 10.8778 175.704 10.7685 175.127 10.7685C174.544 10.7685 174.011 10.8745 173.527 11.0866C173.043 11.2921 172.655 11.5871 172.363 11.9716C172.072 12.3561 171.916 12.8068 171.896 13.3239H167.77C167.789 12.1506 168.124 11.1165 168.774 10.2216C169.423 9.3267 170.298 8.62737 171.399 8.12358C172.506 7.61316 173.755 7.35795 175.147 7.35795C176.553 7.35795 177.782 7.61316 178.836 8.12358C179.89 8.634 180.709 9.32339 181.292 10.1918C181.882 11.0535 182.174 12.0213 182.167 13.0952C182.174 14.2353 181.819 15.1866 181.103 15.9489C180.394 16.7112 179.469 17.1951 178.329 17.4006V17.5597C179.827 17.7519 180.967 18.2723 181.75 19.1207C182.538 19.9626 182.93 21.0166 182.923 22.2827C182.93 23.4427 182.595 24.4735 181.919 25.375C181.249 26.2765 180.324 26.9858 179.145 27.5028C177.965 28.0199 176.612 28.2784 175.088 28.2784ZM193.833 28.2784C192.786 28.2718 191.775 28.0961 190.8 27.7514C189.833 27.4067 188.964 26.8466 188.195 26.071C187.426 25.2955 186.817 24.268 186.366 22.9886C185.922 21.7093 185.7 20.1383 185.7 18.2756C185.706 16.5653 185.902 15.0374 186.286 13.6918C186.677 12.3395 187.234 11.1927 187.957 10.2514C188.686 9.31013 189.558 8.59422 190.572 8.10369C191.586 7.60653 192.723 7.35795 193.982 7.35795C195.341 7.35795 196.541 7.62311 197.582 8.15341C198.622 8.67708 199.458 9.38968 200.087 10.2912C200.724 11.1927 201.108 12.2036 201.241 13.3239H196.995C196.829 12.6146 196.481 12.0578 195.951 11.6534C195.421 11.2491 194.764 11.0469 193.982 11.0469C192.656 11.0469 191.649 11.6236 190.96 12.777C190.277 13.9304 189.929 15.4981 189.915 17.4801H190.055C190.36 16.8769 190.771 16.3632 191.288 15.9389C191.811 15.508 192.405 15.1799 193.067 14.9545C193.737 14.7225 194.443 14.6065 195.185 14.6065C196.392 14.6065 197.466 14.8916 198.407 15.4616C199.348 16.0251 200.091 16.8007 200.634 17.7884C201.178 18.776 201.45 19.9062 201.45 21.179C201.45 22.5578 201.128 23.7841 200.485 24.858C199.849 25.9318 198.957 26.7737 197.81 27.3835C196.67 27.9867 195.344 28.285 193.833 28.2784ZM193.813 24.8977C194.476 24.8977 195.069 24.7386 195.593 24.4205C196.117 24.1023 196.528 23.6714 196.826 23.1278C197.124 22.5843 197.273 21.9744 197.273 21.2983C197.273 20.6222 197.124 20.0156 196.826 19.4787C196.534 18.9418 196.13 18.5142 195.613 18.196C195.096 17.8778 194.506 17.7188 193.843 17.7188C193.346 17.7188 192.885 17.8116 192.461 17.9972C192.043 18.1828 191.675 18.4413 191.357 18.7727C191.046 19.1042 190.8 19.4886 190.621 19.9261C190.442 20.357 190.353 20.8177 190.353 21.3082C190.353 21.9645 190.502 22.5644 190.8 23.108C191.105 23.6515 191.516 24.0857 192.033 24.4105C192.557 24.7353 193.15 24.8977 193.813 24.8977Z" fill="#4D4D4D"/>
<path d="M65.4091 54V42.3636H69.3409C70.2538 42.3636 71 42.5284 71.5795 42.858C72.1629 43.1837 72.5947 43.625 72.875 44.1818C73.1553 44.7386 73.2955 45.3598 73.2955 46.0455C73.2955 46.7311 73.1553 47.3542 72.875 47.9148C72.5985 48.4754 72.1705 48.9223 71.5909 49.2557C71.0114 49.5852 70.2689 49.75 69.3636 49.75H66.5455V48.5H69.3182C69.9432 48.5 70.4451 48.392 70.8239 48.1761C71.2027 47.9602 71.4773 47.6686 71.6477 47.3011C71.822 46.9299 71.9091 46.5114 71.9091 46.0455C71.9091 45.5795 71.822 45.1629 71.6477 44.7955C71.4773 44.428 71.2008 44.1402 70.8182 43.9318C70.4356 43.7197 69.928 43.6136 69.2955 43.6136H66.8182V54H65.4091ZM77.9517 54.2045C77.3987 54.2045 76.8968 54.1004 76.446 53.892C75.9953 53.6799 75.6373 53.375 75.3722 52.9773C75.107 52.5758 74.9744 52.0909 74.9744 51.5227C74.9744 51.0227 75.0729 50.6174 75.2699 50.3068C75.4669 49.9924 75.7301 49.7462 76.0597 49.5682C76.3892 49.3902 76.7528 49.2576 77.1506 49.1705C77.5521 49.0795 77.9555 49.0076 78.3608 48.9545C78.8911 48.8864 79.321 48.8352 79.6506 48.8011C79.9839 48.7633 80.2263 48.7008 80.3778 48.6136C80.5331 48.5265 80.6108 48.375 80.6108 48.1591V48.1136C80.6108 47.553 80.4574 47.1174 80.1506 46.8068C79.8475 46.4962 79.3873 46.3409 78.7699 46.3409C78.1297 46.3409 77.6278 46.4811 77.2642 46.7614C76.9006 47.0417 76.6449 47.3409 76.4972 47.6591L75.2244 47.2045C75.4517 46.6742 75.7547 46.2614 76.1335 45.9659C76.5161 45.6667 76.9328 45.4583 77.3835 45.3409C77.8381 45.2197 78.285 45.1591 78.7244 45.1591C79.0047 45.1591 79.3267 45.1932 79.6903 45.2614C80.0578 45.3258 80.4119 45.4602 80.7528 45.6648C81.0975 45.8693 81.3835 46.178 81.6108 46.5909C81.8381 47.0038 81.9517 47.5568 81.9517 48.25V54H80.6108V52.8182H80.5426C80.4517 53.0076 80.3002 53.2102 80.0881 53.4261C79.8759 53.642 79.5938 53.8258 79.2415 53.9773C78.8892 54.1288 78.4593 54.2045 77.9517 54.2045ZM78.1562 53C78.6866 53 79.1335 52.8958 79.4972 52.6875C79.8646 52.4792 80.1411 52.2102 80.3267 51.8807C80.5161 51.5511 80.6108 51.2045 80.6108 50.8409V49.6136C80.554 49.6818 80.429 49.7443 80.2358 49.8011C80.0464 49.8542 79.8267 49.9015 79.5767 49.9432C79.3305 49.9811 79.09 50.0152 78.8551 50.0455C78.6241 50.072 78.4366 50.0947 78.2926 50.1136C77.9441 50.1591 77.6184 50.233 77.3153 50.3352C77.0161 50.4337 76.7737 50.5833 76.5881 50.7841C76.4063 50.9811 76.3153 51.25 76.3153 51.5909C76.3153 52.0568 76.4877 52.4091 76.8324 52.6477C77.1809 52.8826 77.6222 53 78.1562 53ZM84.9503 57.2727C84.723 57.2727 84.5204 57.2538 84.3423 57.2159C84.1643 57.1818 84.0412 57.1477 83.973 57.1136L84.3139 55.9318C84.6397 56.0152 84.9276 56.0455 85.1776 56.0227C85.4276 56 85.6491 55.8883 85.8423 55.6875C86.0393 55.4905 86.2192 55.1705 86.3821 54.7273L86.6321 54.0455L83.4048 45.2727H84.8594L87.2685 52.2273H87.3594L89.7685 45.2727H91.223L87.5185 55.2727C87.3518 55.7235 87.1454 56.0966 86.8991 56.392C86.6529 56.6913 86.367 56.9129 86.0412 57.0568C85.7192 57.2008 85.3556 57.2727 84.9503 57.2727ZM92.9929 54V45.2727H94.2884V46.6364H94.402C94.5838 46.1705 94.8774 45.8087 95.2827 45.5511C95.688 45.2898 96.1747 45.1591 96.7429 45.1591C97.3187 45.1591 97.7978 45.2898 98.1804 45.5511C98.5668 45.8087 98.8679 46.1705 99.0838 46.6364H99.1747C99.3982 46.1856 99.7334 45.8277 100.18 45.5625C100.627 45.2936 101.163 45.1591 101.788 45.1591C102.569 45.1591 103.207 45.4034 103.703 45.892C104.199 46.3769 104.447 47.1326 104.447 48.1591V54H103.107V48.1591C103.107 47.5152 102.93 47.0549 102.578 46.7784C102.226 46.5019 101.811 46.3636 101.334 46.3636C100.72 46.3636 100.245 46.5492 99.9077 46.9205C99.5705 47.2879 99.402 47.7538 99.402 48.3182V54H98.0384V48.0227C98.0384 47.5265 97.8774 47.1269 97.5554 46.8239C97.2334 46.517 96.8187 46.3636 96.3111 46.3636C95.9626 46.3636 95.6368 46.4564 95.3338 46.642C95.0346 46.8277 94.7921 47.0852 94.6065 47.4148C94.4247 47.7405 94.3338 48.1174 94.3338 48.5455V54H92.9929ZM110.558 54.1818C109.717 54.1818 108.992 53.9962 108.382 53.625C107.776 53.25 107.308 52.7273 106.979 52.0568C106.653 51.3826 106.49 50.5985 106.49 49.7045C106.49 48.8106 106.653 48.0227 106.979 47.3409C107.308 46.6553 107.767 46.1212 108.354 45.7386C108.945 45.3523 109.634 45.1591 110.422 45.1591C110.876 45.1591 111.325 45.2348 111.768 45.3864C112.212 45.5379 112.615 45.7841 112.979 46.125C113.342 46.4621 113.632 46.9091 113.848 47.4659C114.064 48.0227 114.172 48.7083 114.172 49.5227V50.0909H107.445V48.9318H112.808C112.808 48.4394 112.71 48 112.513 47.6136C112.32 47.2273 112.043 46.9223 111.683 46.6989C111.327 46.4754 110.907 46.3636 110.422 46.3636C109.888 46.3636 109.426 46.4962 109.036 46.7614C108.649 47.0227 108.352 47.3636 108.143 47.7841C107.935 48.2045 107.831 48.6553 107.831 49.1364V49.9091C107.831 50.5682 107.945 51.1269 108.172 51.5852C108.403 52.0398 108.723 52.3864 109.132 52.625C109.541 52.8598 110.017 52.9773 110.558 52.9773C110.911 52.9773 111.229 52.928 111.513 52.8295C111.801 52.7273 112.049 52.5758 112.257 52.375C112.465 52.1705 112.626 51.9167 112.74 51.6136L114.036 51.9773C113.899 52.4167 113.67 52.803 113.348 53.1364C113.026 53.4659 112.628 53.7235 112.155 53.9091C111.681 54.0909 111.149 54.1818 110.558 54.1818ZM117.553 48.75V54H116.212V45.2727H117.507V46.6364H117.621C117.825 46.1932 118.136 45.8371 118.553 45.5682C118.969 45.2955 119.507 45.1591 120.166 45.1591C120.757 45.1591 121.274 45.2803 121.717 45.5227C122.161 45.7614 122.505 46.125 122.751 46.6136C122.998 47.0985 123.121 47.7121 123.121 48.4545V54H121.78V48.5455C121.78 47.8598 121.602 47.3258 121.246 46.9432C120.89 46.5568 120.401 46.3636 119.78 46.3636C119.352 46.3636 118.969 46.4564 118.632 46.642C118.299 46.8277 118.036 47.0985 117.842 47.4545C117.649 47.8106 117.553 48.2424 117.553 48.75ZM129.366 45.2727V46.4091H124.844V45.2727H129.366ZM126.162 43.1818H127.503V51.5C127.503 51.8788 127.558 52.1629 127.668 52.3523C127.781 52.5379 127.925 52.6629 128.099 52.7273C128.277 52.7879 128.465 52.8182 128.662 52.8182C128.81 52.8182 128.931 52.8106 129.026 52.7955C129.12 52.7765 129.196 52.7614 129.253 52.75L129.526 53.9545C129.435 53.9886 129.308 54.0227 129.145 54.0568C128.982 54.0947 128.776 54.1136 128.526 54.1136C128.147 54.1136 127.776 54.0322 127.412 53.8693C127.052 53.7064 126.753 53.4583 126.514 53.125C126.279 52.7917 126.162 52.3712 126.162 51.8636V43.1818ZM137.409 47.2273L136.205 47.5682C136.129 47.3674 136.017 47.1723 135.869 46.983C135.725 46.7898 135.528 46.6307 135.278 46.5057C135.028 46.3807 134.708 46.3182 134.318 46.3182C133.784 46.3182 133.339 46.4413 132.983 46.6875C132.631 46.9299 132.455 47.2386 132.455 47.6136C132.455 47.947 132.576 48.2102 132.818 48.4034C133.061 48.5966 133.439 48.7576 133.955 48.8864L135.25 49.2045C136.03 49.3939 136.612 49.6837 136.994 50.0739C137.377 50.4602 137.568 50.9583 137.568 51.5682C137.568 52.0682 137.424 52.5152 137.136 52.9091C136.852 53.303 136.455 53.6136 135.943 53.8409C135.432 54.0682 134.837 54.1818 134.159 54.1818C133.269 54.1818 132.532 53.9886 131.949 53.6023C131.366 53.2159 130.996 52.6515 130.841 51.9091L132.114 51.5909C132.235 52.0606 132.464 52.4129 132.801 52.6477C133.142 52.8826 133.587 53 134.136 53C134.761 53 135.258 52.8674 135.625 52.6023C135.996 52.3333 136.182 52.0114 136.182 51.6364C136.182 51.3333 136.076 51.0795 135.864 50.875C135.652 50.6667 135.326 50.5114 134.886 50.4091L133.432 50.0682C132.633 49.8788 132.045 49.5852 131.67 49.1875C131.299 48.786 131.114 48.2841 131.114 47.6818C131.114 47.1894 131.252 46.7538 131.528 46.375C131.809 45.9962 132.189 45.6989 132.67 45.483C133.155 45.267 133.705 45.1591 134.318 45.1591C135.182 45.1591 135.86 45.3485 136.352 45.7273C136.848 46.1061 137.201 46.6061 137.409 47.2273Z" fill="#717171"/>
</g>
<defs>
<clipPath id="clip0_16_1393">
<rect width="191" height="60" fill="white" transform="translate(64)"/>
</clipPath>
</defs>
</svg>
