<svg width="255" height="60" viewBox="0 0 255 60" fill="none" xmlns="http://www.w3.org/2000/svg">
<path d="M16.4999 14.7359C18.8587 14.7359 21.161 15.4617 23.0936 16.8141C25.0259 18.1663 26.4955 20.0799 27.3036 22.2955C28.1117 24.5115 28.2195 26.9228 27.6112 29.2018C27.0029 31.4806 25.7081 33.5173 23.9032 35.0357L23.2958 35.5475L24.0184 35.8746C26.9917 37.2201 29.5508 39.3372 31.4286 42.0064L31.4354 42.0162L31.4432 42.026C31.589 42.2128 31.6953 42.4277 31.7557 42.6568C31.8162 42.8861 31.8296 43.1255 31.7948 43.36C31.76 43.5944 31.6779 43.8193 31.5536 44.0211C31.4292 44.2229 31.265 44.3973 31.0712 44.5338C30.8773 44.6703 30.6576 44.766 30.4257 44.815C30.1938 44.864 29.954 44.8662 29.7216 44.8199C29.4892 44.7736 29.2685 44.6796 29.0731 44.5455C28.8778 44.4114 28.7115 44.2389 28.5848 44.0387L28.579 44.0289L28.5721 44.0191L28.3114 43.6598C26.984 41.8851 25.2724 40.4307 23.3026 39.4068C21.2014 38.3147 18.8679 37.7447 16.4999 37.7447C14.1319 37.7447 11.7983 38.3147 9.69714 39.4068C7.5961 40.4989 5.78925 42.0812 4.42859 44.0191L4.42761 44.0201C4.26766 44.2498 4.05386 44.4378 3.80554 44.567C3.55736 44.6961 3.2816 44.763 3.00183 44.7623H2.99792C2.63907 44.7634 2.28891 44.6516 1.99695 44.443L1.995 44.442L1.85828 44.3346C1.55451 44.0715 1.34853 43.7105 1.27917 43.3111C1.19996 42.8546 1.30489 42.3846 1.57117 42.0055C3.44896 39.3365 6.00823 37.22 8.98132 35.8746L9.70398 35.5475L9.09656 35.0357C7.29172 33.5173 5.99686 31.4806 5.38855 29.2018C4.78027 26.9228 4.88805 24.5115 5.69617 22.2955C6.50434 20.0797 7.9746 18.1663 9.9071 16.8141C11.8397 15.4617 14.1411 14.736 16.4999 14.7359ZM28.6649 15.1832H28.6659L28.6747 15.1812C29.6848 14.8937 30.7299 14.7479 31.7802 14.7496H31.7831C34.1431 14.7428 36.4479 15.464 38.3837 16.8141C40.3196 18.1642 41.7923 20.0783 42.6014 22.2955C43.4105 24.5126 43.5164 26.9251 42.9052 29.2047C42.2939 31.4844 40.9953 33.5208 39.1854 35.0357L38.5751 35.5465L39.2997 35.8746C42.273 37.2201 44.832 39.3372 46.7098 42.0064L46.7118 42.0094C46.8452 42.196 46.94 42.4077 46.9911 42.6314C47.0421 42.8551 47.0489 43.0871 47.0096 43.3131C46.9704 43.539 46.886 43.7546 46.7626 43.9478C46.6391 44.1412 46.4785 44.3083 46.2899 44.4391L46.2841 44.443C45.992 44.6517 45.642 44.7624 45.2831 44.7613C45.0026 44.7595 44.7262 44.6926 44.4774 44.5631C44.2906 44.4658 44.1238 44.3356 43.9833 44.1803L43.8514 44.0172C42.4881 42.0832 40.6809 40.5042 38.5809 39.4137C36.4806 38.323 34.1487 37.7522 31.7821 37.7496H31.7811C31.3171 37.7496 30.872 37.5659 30.5438 37.2379C30.2156 36.9097 30.0311 36.4637 30.0311 35.9996C30.0312 35.5356 30.2157 35.0904 30.5438 34.7623C30.872 34.4342 31.3171 34.2496 31.7811 34.2496C33.9029 34.2496 35.9381 33.4071 37.4384 31.9068C38.9386 30.4066 39.7811 28.3713 39.7811 26.2496C39.781 24.1281 38.9384 22.0935 37.4384 20.5934C35.9381 19.0931 33.9029 18.2496 31.7811 18.2496C31.05 18.2483 30.3221 18.3498 29.619 18.5504L29.6132 18.5523C29.3908 18.6186 29.1574 18.6396 28.9266 18.6148C28.6959 18.5901 28.4727 18.5197 28.2694 18.4078C28.0661 18.2959 27.8864 18.1452 27.7421 17.9635C27.5978 17.7817 27.4915 17.5726 27.4286 17.3492C27.3657 17.1258 27.3476 16.8921 27.3759 16.6617C27.4042 16.4313 27.4785 16.209 27.5936 16.0074C27.7087 15.8059 27.8627 15.6293 28.0468 15.4879C28.2307 15.3465 28.4407 15.2426 28.6649 15.1832ZM18.0604 18.4039C16.5086 18.0953 14.9001 18.2535 13.4384 18.859C11.9767 19.4644 10.7275 20.4898 9.84851 21.8053C8.96953 23.1207 8.49996 24.6675 8.49988 26.2496C8.49988 28.3712 9.34252 30.4066 10.8427 31.9068C12.3429 33.4071 14.3782 34.2496 16.4999 34.2496C18.082 34.2496 19.6287 33.7809 20.9442 32.9019C22.2598 32.0229 23.286 30.7729 23.8915 29.3111C24.4968 27.8494 24.6552 26.2407 24.3466 24.6891C24.0379 23.1374 23.2758 21.7121 22.1571 20.5934C21.0383 19.4745 19.6123 18.7126 18.0604 18.4039Z" fill="#4CAF4F" stroke="#4CAF4F"/>
<g clip-path="url(#clip0_16_1415)">
<path d="M65.6506 28V24.8977L72.8991 18.1861C73.5156 17.5895 74.0327 17.0526 74.4503 16.5753C74.8745 16.098 75.196 15.6307 75.4148 15.1733C75.6335 14.7093 75.7429 14.2088 75.7429 13.6719C75.7429 13.0753 75.607 12.5616 75.3352 12.1307C75.0634 11.6932 74.6922 11.3584 74.2216 11.1264C73.7509 10.8878 73.2173 10.7685 72.6207 10.7685C71.9976 10.7685 71.4541 10.8944 70.9901 11.1463C70.526 11.3982 70.1681 11.7595 69.9162 12.2301C69.6643 12.7008 69.5384 13.2609 69.5384 13.9105H65.4517C65.4517 12.5781 65.7533 11.4214 66.3565 10.4403C66.9598 9.45928 67.8049 8.70028 68.892 8.16335C69.9792 7.62642 71.232 7.35795 72.6506 7.35795C74.1089 7.35795 75.3783 7.61648 76.4588 8.13352C77.5459 8.64394 78.3911 9.35322 78.9943 10.2614C79.5975 11.1695 79.8991 12.2102 79.8991 13.3835C79.8991 14.1525 79.7467 14.9115 79.4418 15.6605C79.1435 16.4096 78.6098 17.2415 77.8409 18.1562C77.072 19.0644 75.9882 20.1548 74.5895 21.4276L71.6165 24.3409V24.4801H80.1676V28H65.6506ZM87.9308 25.2159L87.8214 26.3097C87.7352 27.1847 87.5695 28.0563 87.3242 28.9247C87.0856 29.7997 86.8337 30.5919 86.5685 31.3011C86.31 32.0104 86.1012 32.5672 85.9421 32.9716H83.1978C83.2972 32.5805 83.4331 32.0336 83.6055 31.331C83.7778 30.6349 83.9402 29.8527 84.0927 28.9844C84.2451 28.116 84.3413 27.2311 84.381 26.3295L84.4308 25.2159H87.9308ZM91.7638 28V24.8977L99.0124 18.1861C99.6289 17.5895 100.146 17.0526 100.564 16.5753C100.988 16.098 101.309 15.6307 101.528 15.1733C101.747 14.7093 101.856 14.2088 101.856 13.6719C101.856 13.0753 101.72 12.5616 101.449 12.1307C101.177 11.6932 100.806 11.3584 100.335 11.1264C99.8642 10.8878 99.3306 10.7685 98.734 10.7685C98.1109 10.7685 97.5674 10.8944 97.1033 11.1463C96.6393 11.3982 96.2814 11.7595 96.0295 12.2301C95.7776 12.7008 95.6516 13.2609 95.6516 13.9105H91.565C91.565 12.5781 91.8666 11.4214 92.4698 10.4403C93.073 9.45928 93.9182 8.70028 95.0053 8.16335C96.0924 7.62642 97.3453 7.35795 98.7638 7.35795C100.222 7.35795 101.492 7.61648 102.572 8.13352C103.659 8.64394 104.504 9.35322 105.108 10.2614C105.711 11.1695 106.012 12.2102 106.012 13.3835C106.012 14.1525 105.86 14.9115 105.555 15.6605C105.257 16.4096 104.723 17.2415 103.954 18.1562C103.185 19.0644 102.101 20.1548 100.703 21.4276L97.7298 24.3409V24.4801H106.281V28H91.7638ZM108.655 24.4205V21.0298L117.156 7.63636H120.08V12.3295H118.349L112.99 20.8111V20.9702H125.071V24.4205H108.655ZM118.429 28V23.3864L118.509 21.8849V7.63636H122.545V28H118.429ZM135.377 28.2784C133.972 28.2784 132.719 28.0199 131.619 27.5028C130.525 26.9858 129.656 26.2732 129.013 25.3651C128.371 24.4569 128.036 23.4162 128.009 22.2429H132.185C132.232 23.0317 132.563 23.6714 133.18 24.1619C133.796 24.6525 134.529 24.8977 135.377 24.8977C136.053 24.8977 136.65 24.7486 137.167 24.4503C137.691 24.1454 138.098 23.7244 138.39 23.1875C138.688 22.6439 138.837 22.0208 138.837 21.3182C138.837 20.6023 138.685 19.9725 138.38 19.429C138.082 18.8854 137.667 18.4612 137.137 18.1562C136.607 17.8513 136 17.6955 135.317 17.6889C134.721 17.6889 134.141 17.8116 133.577 18.0568C133.021 18.3021 132.586 18.6368 132.275 19.0611L128.447 18.375L129.411 7.63636H141.86V11.1562H132.961L132.434 16.2571H132.553C132.911 15.7533 133.451 15.3357 134.174 15.0043C134.897 14.6728 135.705 14.5071 136.6 14.5071C137.826 14.5071 138.92 14.7955 139.881 15.3722C140.843 15.9489 141.602 16.741 142.158 17.7486C142.715 18.7495 142.99 19.9029 142.984 21.2088C142.99 22.581 142.672 23.8007 142.029 24.8679C141.393 25.9285 140.501 26.7637 139.354 27.3736C138.214 27.9768 136.888 28.2784 135.377 28.2784ZM149.974 25.2159L149.864 26.3097C149.778 27.1847 149.612 28.0563 149.367 28.9247C149.129 29.7997 148.877 30.5919 148.612 31.3011C148.353 32.0104 148.144 32.5672 147.985 32.9716H145.241C145.34 32.5805 145.476 32.0336 145.648 31.331C145.821 30.6349 145.983 29.8527 146.136 28.9844C146.288 28.116 146.384 27.2311 146.424 26.3295L146.474 25.2159H149.974ZM160.678 28.2784C159.193 28.2784 157.87 28.0232 156.71 27.5128C155.557 26.9957 154.645 26.2865 153.976 25.3849C153.313 24.4768 152.972 23.4295 152.952 22.2429H157.287C157.313 22.7401 157.476 23.1776 157.774 23.5554C158.079 23.9266 158.483 24.215 158.987 24.4205C159.491 24.6259 160.058 24.7287 160.688 24.7287C161.344 24.7287 161.924 24.6127 162.428 24.3807C162.931 24.1487 163.326 23.8272 163.611 23.4162C163.896 23.0052 164.038 22.5312 164.038 21.9943C164.038 21.4508 163.886 20.9702 163.581 20.5526C163.283 20.1283 162.852 19.7969 162.288 19.5582C161.732 19.3196 161.069 19.2003 160.3 19.2003H158.401V16.0384H160.3C160.949 16.0384 161.523 15.9257 162.02 15.7003C162.524 15.4749 162.915 15.1634 163.193 14.7656C163.472 14.3613 163.611 13.8906 163.611 13.3537C163.611 12.8433 163.488 12.3958 163.243 12.0114C163.004 11.6203 162.666 11.3153 162.229 11.0966C161.798 10.8778 161.294 10.7685 160.717 10.7685C160.134 10.7685 159.6 10.8745 159.116 11.0866C158.633 11.2921 158.245 11.5871 157.953 11.9716C157.661 12.3561 157.506 12.8068 157.486 13.3239H153.359C153.379 12.1506 153.714 11.1165 154.364 10.2216C155.013 9.3267 155.888 8.62737 156.989 8.12358C158.096 7.61316 159.345 7.35795 160.737 7.35795C162.143 7.35795 163.372 7.61316 164.426 8.12358C165.48 8.634 166.299 9.32339 166.882 10.1918C167.472 11.0535 167.764 12.0213 167.757 13.0952C167.764 14.2353 167.409 15.1866 166.693 15.9489C165.984 16.7112 165.059 17.1951 163.919 17.4006V17.5597C165.417 17.7519 166.557 18.2723 167.339 19.1207C168.128 19.9626 168.519 21.0166 168.513 22.2827C168.519 23.4427 168.185 24.4735 167.509 25.375C166.839 26.2765 165.914 26.9858 164.734 27.5028C163.554 28.0199 162.202 28.2784 160.678 28.2784ZM171.299 24.4205V21.0298L179.801 7.63636H182.724V12.3295H180.994L175.635 20.8111V20.9702H187.716V24.4205H171.299ZM181.074 28V23.3864L181.153 21.8849V7.63636H185.19V28H181.074ZM199.17 7.63636V28H194.865V11.723H194.745L190.082 14.6463V10.8281L195.123 7.63636H199.17Z" fill="#4D4D4D"/>
<path d="M65.4091 42.3636H67.0909L71.0455 52.0227H71.1818L75.1364 42.3636H76.8182V54H75.5V45.1591H75.3864L71.75 54H70.4773L66.8409 45.1591H66.7273V54H65.4091V42.3636ZM83.1207 54.1818C82.2798 54.1818 81.5545 53.9962 80.9446 53.625C80.3385 53.25 79.8707 52.7273 79.5412 52.0568C79.2154 51.3826 79.0526 50.5985 79.0526 49.7045C79.0526 48.8106 79.2154 48.0227 79.5412 47.3409C79.8707 46.6553 80.3291 46.1212 80.9162 45.7386C81.5071 45.3523 82.1965 45.1591 82.9844 45.1591C83.4389 45.1591 83.8878 45.2348 84.331 45.3864C84.7741 45.5379 85.1776 45.7841 85.5412 46.125C85.9048 46.4621 86.1946 46.9091 86.4105 47.4659C86.6264 48.0227 86.7344 48.7083 86.7344 49.5227V50.0909H80.0071V48.9318H85.3707C85.3707 48.4394 85.2723 48 85.0753 47.6136C84.8821 47.2273 84.6056 46.9223 84.2457 46.6989C83.8897 46.4754 83.4692 46.3636 82.9844 46.3636C82.4503 46.3636 81.9882 46.4962 81.598 46.7614C81.2116 47.0227 80.9143 47.3636 80.706 47.7841C80.4976 48.2045 80.3935 48.6553 80.3935 49.1364V49.9091C80.3935 50.5682 80.5071 51.1269 80.7344 51.5852C80.9654 52.0398 81.2855 52.3864 81.6946 52.625C82.1037 52.8598 82.5791 52.9773 83.1207 52.9773C83.473 52.9773 83.7912 52.928 84.0753 52.8295C84.3632 52.7273 84.6113 52.5758 84.8196 52.375C85.0279 52.1705 85.1889 51.9167 85.3026 51.6136L86.598 51.9773C86.4616 52.4167 86.2325 52.803 85.9105 53.1364C85.5885 53.4659 85.1908 53.7235 84.7173 53.9091C84.2438 54.0909 83.7116 54.1818 83.1207 54.1818ZM88.7741 54V45.2727H90.0696V46.6364H90.1832C90.3651 46.1705 90.6586 45.8087 91.0639 45.5511C91.4692 45.2898 91.956 45.1591 92.5241 45.1591C93.0999 45.1591 93.5791 45.2898 93.9616 45.5511C94.348 45.8087 94.6491 46.1705 94.8651 46.6364H94.956C95.1795 46.1856 95.5147 45.8277 95.9616 45.5625C96.4086 45.2936 96.9446 45.1591 97.5696 45.1591C98.3499 45.1591 98.9882 45.4034 99.4844 45.892C99.9806 46.3769 100.229 47.1326 100.229 48.1591V54H98.8878V48.1591C98.8878 47.5152 98.7116 47.0549 98.3594 46.7784C98.0071 46.5019 97.5923 46.3636 97.1151 46.3636C96.5014 46.3636 96.026 46.5492 95.6889 46.9205C95.3518 47.2879 95.1832 47.7538 95.1832 48.3182V54H93.8196V48.0227C93.8196 47.5265 93.6586 47.1269 93.3366 46.8239C93.0147 46.517 92.5999 46.3636 92.0923 46.3636C91.7438 46.3636 91.4181 46.4564 91.1151 46.642C90.8158 46.8277 90.5734 47.0852 90.3878 47.4148C90.206 47.7405 90.1151 48.1174 90.1151 48.5455V54H88.7741ZM102.862 54V42.3636H104.203V46.6591H104.317C104.415 46.5076 104.552 46.3144 104.726 46.0795C104.904 45.8409 105.158 45.6288 105.487 45.4432C105.821 45.2538 106.271 45.1591 106.839 45.1591C107.574 45.1591 108.222 45.3428 108.783 45.7102C109.343 46.0777 109.781 46.5985 110.095 47.2727C110.41 47.947 110.567 48.7424 110.567 49.6591C110.567 50.5833 110.41 51.3845 110.095 52.0625C109.781 52.7367 109.345 53.2595 108.788 53.6307C108.232 53.9981 107.589 54.1818 106.862 54.1818C106.302 54.1818 105.853 54.089 105.516 53.9034C105.179 53.714 104.919 53.5 104.737 53.2614C104.555 53.0189 104.415 52.8182 104.317 52.6591H104.158V54H102.862ZM104.18 49.6364C104.18 50.2955 104.277 50.8769 104.47 51.3807C104.663 51.8807 104.946 52.2727 105.317 52.5568C105.688 52.8371 106.143 52.9773 106.68 52.9773C107.241 52.9773 107.709 52.8295 108.084 52.5341C108.463 52.2348 108.747 51.8333 108.936 51.3295C109.129 50.822 109.226 50.2576 109.226 49.6364C109.226 49.0227 109.131 48.4697 108.942 47.9773C108.756 47.4811 108.474 47.089 108.095 46.8011C107.72 46.5095 107.249 46.3636 106.68 46.3636C106.135 46.3636 105.677 46.5019 105.305 46.7784C104.934 47.0511 104.654 47.4337 104.464 47.9261C104.275 48.4148 104.18 48.9848 104.18 49.6364ZM116.277 54.1818C115.436 54.1818 114.711 53.9962 114.101 53.625C113.495 53.25 113.027 52.7273 112.697 52.0568C112.372 51.3826 112.209 50.5985 112.209 49.7045C112.209 48.8106 112.372 48.0227 112.697 47.3409C113.027 46.6553 113.485 46.1212 114.072 45.7386C114.663 45.3523 115.353 45.1591 116.141 45.1591C116.595 45.1591 117.044 45.2348 117.487 45.3864C117.93 45.5379 118.334 45.7841 118.697 46.125C119.061 46.4621 119.351 46.9091 119.567 47.4659C119.783 48.0227 119.891 48.7083 119.891 49.5227V50.0909H113.163V48.9318H118.527C118.527 48.4394 118.429 48 118.232 47.6136C118.038 47.2273 117.762 46.9223 117.402 46.6989C117.046 46.4754 116.625 46.3636 116.141 46.3636C115.607 46.3636 115.144 46.4962 114.754 46.7614C114.368 47.0227 114.071 47.3636 113.862 47.7841C113.654 48.2045 113.55 48.6553 113.55 49.1364V49.9091C113.55 50.5682 113.663 51.1269 113.891 51.5852C114.122 52.0398 114.442 52.3864 114.851 52.625C115.26 52.8598 115.735 52.9773 116.277 52.9773C116.629 52.9773 116.947 52.928 117.232 52.8295C117.519 52.7273 117.768 52.5758 117.976 52.375C118.184 52.1705 118.345 51.9167 118.459 51.6136L119.754 51.9773C119.618 52.4167 119.389 52.803 119.067 53.1364C118.745 53.4659 118.347 53.7235 117.874 53.9091C117.4 54.0909 116.868 54.1818 116.277 54.1818ZM121.93 54V45.2727H123.226V46.5909H123.317C123.476 46.1591 123.764 45.8087 124.18 45.5398C124.597 45.2708 125.067 45.1364 125.589 45.1364C125.688 45.1364 125.811 45.1383 125.959 45.142C126.107 45.1458 126.218 45.1515 126.294 45.1591V46.5227C126.249 46.5114 126.144 46.4943 125.982 46.4716C125.822 46.4451 125.654 46.4318 125.476 46.4318C125.052 46.4318 124.673 46.5208 124.339 46.6989C124.01 46.8731 123.749 47.1155 123.555 47.4261C123.366 47.733 123.271 48.0833 123.271 48.4773V54H121.93ZM134.065 47.2273L132.861 47.5682C132.785 47.3674 132.673 47.1723 132.526 46.983C132.382 46.7898 132.185 46.6307 131.935 46.5057C131.685 46.3807 131.365 46.3182 130.974 46.3182C130.44 46.3182 129.995 46.4413 129.639 46.6875C129.287 46.9299 129.111 47.2386 129.111 47.6136C129.111 47.947 129.232 48.2102 129.474 48.4034C129.717 48.5966 130.096 48.7576 130.611 48.8864L131.906 49.2045C132.687 49.3939 133.268 49.6837 133.651 50.0739C134.033 50.4602 134.224 50.9583 134.224 51.5682C134.224 52.0682 134.08 52.5152 133.793 52.9091C133.509 53.303 133.111 53.6136 132.599 53.8409C132.088 54.0682 131.493 54.1818 130.815 54.1818C129.925 54.1818 129.188 53.9886 128.605 53.6023C128.022 53.2159 127.652 52.6515 127.497 51.9091L128.77 51.5909C128.891 52.0606 129.12 52.4129 129.457 52.6477C129.798 52.8826 130.243 53 130.793 53C131.418 53 131.914 52.8674 132.281 52.6023C132.652 52.3333 132.838 52.0114 132.838 51.6364C132.838 51.3333 132.732 51.0795 132.52 50.875C132.308 50.6667 131.982 50.5114 131.543 50.4091L130.088 50.0682C129.289 49.8788 128.702 49.5852 128.327 49.1875C127.955 48.786 127.77 48.2841 127.77 47.6818C127.77 47.1894 127.908 46.7538 128.185 46.375C128.465 45.9962 128.846 45.6989 129.327 45.483C129.812 45.267 130.361 45.1591 130.974 45.1591C131.838 45.1591 132.516 45.3485 133.009 45.7273C133.505 46.1061 133.857 46.6061 134.065 47.2273Z" fill="#717171"/>
</g>
<defs>
<clipPath id="clip0_16_1415">
<rect width="191" height="60" fill="white" transform="translate(64)"/>
</clipPath>
</defs>
</svg>
