<svg width="255" height="60" viewBox="0 0 255 60" fill="none" xmlns="http://www.w3.org/2000/svg">
<mask id="path-1-inside-1_16_1406" fill="white">
<path d="M28.3117 29.6447C28.0709 29.6447 27.8473 29.5785 27.6487 29.472V29.4748C27.6487 29.8537 27.5014 30.2094 27.2343 30.4759C26.9671 30.7431 26.6116 30.8903 26.2332 30.8903C25.9889 30.8903 25.7625 30.8225 25.5617 30.7131C25.5415 31.0597 25.4029 31.3837 25.1558 31.6311C24.8886 31.8982 24.5331 32.0455 24.1545 32.0455C23.4022 32.0455 22.7913 31.4541 22.7473 30.7129C22.5145 30.8387 22.2513 30.9047 21.9799 30.8873C21.2398 30.8387 20.6603 30.1993 20.6603 29.4312V23.0646L19.9353 24.3206C19.6592 24.8009 19.1423 25.0992 18.5858 25.0992C18.3147 25.0992 18.0468 25.028 17.8095 24.8921C17.5141 24.7208 17.3028 24.4459 17.2149 24.117C17.1265 23.7878 17.1722 23.4436 17.3431 23.1486C17.3433 23.1486 19.715 19.0414 19.8597 18.7891C19.8769 18.7512 19.9259 18.6412 19.9676 18.5474C20.0075 18.4579 20.0416 18.366 20.0744 18.2737C20.7896 16.2544 22.5607 15 24.6966 15C27.4703 15 29.7268 17.4469 29.7268 20.4546L29.727 28.229C29.727 28.6074 29.58 28.9629 29.3131 29.2303C29.0459 29.4975 28.6904 29.6447 28.3116 29.6447L28.3117 29.6447ZM24.6966 15.7522C22.8613 15.7522 21.3984 16.7888 20.7833 18.5252C20.744 18.6355 20.703 18.7457 20.6552 18.8532C20.5164 19.1644 20.5164 19.1644 20.4773 19.2091L20.4721 19.2047C20.2784 19.5701 19.7031 20.5664 17.9943 23.5251C17.9241 23.6464 17.9055 23.7873 17.9413 23.922C17.9776 24.0568 18.0645 24.1704 18.1849 24.2399C18.5586 24.4545 19.0703 24.316 19.2833 23.9449L20.7108 21.4734C20.7961 21.3262 20.9685 21.2539 21.1339 21.2986C21.2983 21.3427 21.4126 21.4918 21.4126 21.6619V29.4315C21.4126 29.798 21.6892 30.1144 22.0292 30.1368C22.2252 30.1472 22.408 30.0815 22.5454 29.9443C22.6702 29.8195 22.739 29.6531 22.739 29.4753V24.3939C22.739 24.1861 22.9075 24.0176 23.1153 24.0176C23.3231 24.0176 23.4915 24.1859 23.4915 24.3939L23.4913 30.6303C23.4913 30.9959 23.7889 31.2935 24.1545 31.2935C24.3321 31.2935 24.499 31.2247 24.6241 31.0998C24.7489 30.9747 24.8177 30.8079 24.8177 30.6303V24.3939C24.8177 24.1861 24.9859 24.0176 25.194 24.0176C25.4018 24.0176 25.5702 24.1858 25.5702 24.3939L25.57 29.4168V29.4752C25.57 29.8407 25.8675 30.1382 26.2334 30.1382C26.4108 30.1382 26.5772 30.0692 26.703 29.9438C26.8278 29.8192 26.8966 29.6529 26.8966 29.475V24.3936C26.8966 24.1858 27.0649 24.0174 27.2729 24.0174C27.4807 24.0174 27.6491 24.1856 27.6491 24.3936L27.6487 28.2292C27.6487 28.595 27.9462 28.8926 28.3116 28.8926C28.4895 28.8926 28.6558 28.8236 28.7807 28.699C28.906 28.5736 28.9746 28.4068 28.9746 28.2292L28.9748 20.4548C28.9748 17.8621 27.0557 15.7523 24.6966 15.7523L24.6966 15.7522Z"/>
</mask>
<path d="M28.3117 29.6447C28.0709 29.6447 27.8473 29.5785 27.6487 29.472V29.4748C27.6487 29.8537 27.5014 30.2094 27.2343 30.4759C26.9671 30.7431 26.6116 30.8903 26.2332 30.8903C25.9889 30.8903 25.7625 30.8225 25.5617 30.7131C25.5415 31.0597 25.4029 31.3837 25.1558 31.6311C24.8886 31.8982 24.5331 32.0455 24.1545 32.0455C23.4022 32.0455 22.7913 31.4541 22.7473 30.7129C22.5145 30.8387 22.2513 30.9047 21.9799 30.8873C21.2398 30.8387 20.6603 30.1993 20.6603 29.4312V23.0646L19.9353 24.3206C19.6592 24.8009 19.1423 25.0992 18.5858 25.0992C18.3147 25.0992 18.0468 25.028 17.8095 24.8921C17.5141 24.7208 17.3028 24.4459 17.2149 24.117C17.1265 23.7878 17.1722 23.4436 17.3431 23.1486C17.3433 23.1486 19.715 19.0414 19.8597 18.7891C19.8769 18.7512 19.9259 18.6412 19.9676 18.5474C20.0075 18.4579 20.0416 18.366 20.0744 18.2737C20.7896 16.2544 22.5607 15 24.6966 15C27.4703 15 29.7268 17.4469 29.7268 20.4546L29.727 28.229C29.727 28.6074 29.58 28.9629 29.3131 29.2303C29.0459 29.4975 28.6904 29.6447 28.3116 29.6447L28.3117 29.6447ZM24.6966 15.7522C22.8613 15.7522 21.3984 16.7888 20.7833 18.5252C20.744 18.6355 20.703 18.7457 20.6552 18.8532C20.5164 19.1644 20.5164 19.1644 20.4773 19.2091L20.4721 19.2047C20.2784 19.5701 19.7031 20.5664 17.9943 23.5251C17.9241 23.6464 17.9055 23.7873 17.9413 23.922C17.9776 24.0568 18.0645 24.1704 18.1849 24.2399C18.5586 24.4545 19.0703 24.316 19.2833 23.9449L20.7108 21.4734C20.7961 21.3262 20.9685 21.2539 21.1339 21.2986C21.2983 21.3427 21.4126 21.4918 21.4126 21.6619V29.4315C21.4126 29.798 21.6892 30.1144 22.0292 30.1368C22.2252 30.1472 22.408 30.0815 22.5454 29.9443C22.6702 29.8195 22.739 29.6531 22.739 29.4753V24.3939C22.739 24.1861 22.9075 24.0176 23.1153 24.0176C23.3231 24.0176 23.4915 24.1859 23.4915 24.3939L23.4913 30.6303C23.4913 30.9959 23.7889 31.2935 24.1545 31.2935C24.3321 31.2935 24.499 31.2247 24.6241 31.0998C24.7489 30.9747 24.8177 30.8079 24.8177 30.6303V24.3939C24.8177 24.1861 24.9859 24.0176 25.194 24.0176C25.4018 24.0176 25.5702 24.1858 25.5702 24.3939L25.57 29.4168V29.4752C25.57 29.8407 25.8675 30.1382 26.2334 30.1382C26.4108 30.1382 26.5772 30.0692 26.703 29.9438C26.8278 29.8192 26.8966 29.6529 26.8966 29.475V24.3936C26.8966 24.1858 27.0649 24.0174 27.2729 24.0174C27.4807 24.0174 27.6491 24.1856 27.6491 24.3936L27.6487 28.2292C27.6487 28.595 27.9462 28.8926 28.3116 28.8926C28.4895 28.8926 28.6558 28.8236 28.7807 28.699C28.906 28.5736 28.9746 28.4068 28.9746 28.2292L28.9748 20.4548C28.9748 17.8621 27.0557 15.7523 24.6966 15.7523L24.6966 15.7522Z" fill="#4CAF4F"/>
<path d="M28.3117 29.6447V28.3114H33.0224L29.0104 30.7802L28.3117 29.6447ZM27.6487 29.472H26.3154V27.2442L28.2788 28.2969L27.6487 29.472ZM27.2343 30.4759L26.2915 29.5331L26.2927 29.5318L27.2343 30.4759ZM25.5617 30.7131L24.2307 30.6353L24.3534 28.5369L26.1994 29.5422L25.5617 30.7131ZM25.1558 31.6311L26.0991 32.5734L26.0986 32.5739L25.1558 31.6311ZM22.7473 30.7129L22.1133 29.5399L23.9542 28.545L24.0782 30.6339L22.7473 30.7129ZM21.9799 30.8873L21.8944 32.2178L21.8926 32.2177L21.9799 30.8873ZM20.6603 23.0646L19.5055 22.398L21.9936 18.0875V23.0646H20.6603ZM19.9353 24.3206L18.7794 23.6561L18.7806 23.654L19.9353 24.3206ZM17.8095 24.8921L17.1466 26.049L17.1408 26.0456L17.8095 24.8921ZM17.2149 24.117L18.5026 23.7713L18.503 23.7728L17.2149 24.117ZM17.3431 23.1486L16.1892 22.4805L16.5744 21.8153H17.3431V23.1486ZM19.8597 18.7891L21.0741 19.3397L21.0479 19.3975L21.0164 19.4525L19.8597 18.7891ZM19.9676 18.5474L18.7494 18.0056L18.7494 18.0056L19.9676 18.5474ZM20.0744 18.2737L21.3312 18.7188L21.3311 18.7192L20.0744 18.2737ZM29.7268 20.4546L28.3935 20.4547V20.4546H29.7268ZM29.727 28.229L31.0604 28.2289V28.229H29.727ZM29.3131 29.2303L30.2568 30.1722L30.2559 30.1731L29.3131 29.2303ZM28.3116 29.6447V30.9781H23.6009L27.6128 28.5092L28.3116 29.6447ZM24.6966 15.7522V14.4189H26.4642L25.9786 16.1185L24.6966 15.7522ZM20.7833 18.5252L22.0401 18.9704L22.0391 18.9733L20.7833 18.5252ZM20.6552 18.8532L21.8732 19.3954L21.8729 19.3961L20.6552 18.8532ZM20.4773 19.2091L21.4813 20.0864L20.6091 21.0847L19.6058 20.2182L20.4773 19.2091ZM20.4721 19.2047L19.294 18.5803L20.0774 17.102L21.3436 18.1956L20.4721 19.2047ZM17.9943 23.5251L19.1489 24.1919L19.1484 24.1929L17.9943 23.5251ZM17.9413 23.922L16.6538 24.2687L16.6527 24.2645L17.9413 23.922ZM18.1849 24.2399L17.5208 25.396L17.5183 25.3946L18.1849 24.2399ZM19.2833 23.9449L18.1269 23.2812L18.1287 23.278L19.2833 23.9449ZM20.7108 21.4734L19.5562 20.8066L19.557 20.8052L20.7108 21.4734ZM21.1339 21.2986L20.7889 22.5866L20.7856 22.5857L21.1339 21.2986ZM22.0292 30.1368L21.9588 31.4683L21.9502 31.4678L21.9416 31.4673L22.0292 30.1368ZM22.5454 29.9443L23.4882 30.8871L23.4874 30.888L22.5454 29.9443ZM23.4915 24.3939H24.8249V24.3939L23.4915 24.3939ZM23.4913 30.6303H22.158V30.6302L23.4913 30.6303ZM24.6241 31.0998L25.5678 32.0417L25.566 32.0435L24.6241 31.0998ZM25.5702 24.3939H26.9036V24.3939L25.5702 24.3939ZM25.57 29.4168H24.2367V29.4168L25.57 29.4168ZM26.703 29.9438L27.6449 30.8875L27.644 30.8884L26.703 29.9438ZM27.6491 24.3936H28.9825V24.3938L27.6491 24.3936ZM27.6487 28.2292H26.3153V28.229L27.6487 28.2292ZM28.7807 28.699L29.7235 29.6418L29.7226 29.6426L28.7807 28.699ZM28.9746 28.2292H27.6413V28.2291L28.9746 28.2292ZM28.9748 20.4548H30.3082V20.4549L28.9748 20.4548ZM24.6966 15.7523V17.0856H22.9289L23.4146 15.386L24.6966 15.7523ZM28.3117 30.978C27.8207 30.978 27.3824 30.8421 27.0186 30.6471L28.2788 28.2969C28.296 28.3062 28.3069 28.3097 28.3113 28.3109C28.315 28.3119 28.3145 28.3114 28.3117 28.3114V30.978ZM28.982 29.472V29.4748H26.3154V29.472H28.982ZM28.982 29.4748C28.982 30.2062 28.695 30.9021 28.1758 31.42L26.2927 29.5318C26.3022 29.5223 26.307 29.5142 26.3097 29.5075C26.3125 29.5009 26.3154 29.4906 26.3154 29.4748H28.982ZM28.1771 31.4187C27.6597 31.9361 26.9649 32.2237 26.2332 32.2237V29.557C26.2485 29.557 26.2586 29.5542 26.2654 29.5514C26.2722 29.5486 26.281 29.5435 26.2915 29.5331L28.1771 31.4187ZM26.2332 32.2237C25.7358 32.2237 25.292 32.0845 24.9241 31.8841L26.1994 29.5422C26.2168 29.5516 26.2278 29.5552 26.2321 29.5564C26.2359 29.5574 26.2356 29.557 26.2332 29.557V32.2237ZM26.8928 30.791C26.8544 31.4473 26.5882 32.0838 26.0991 32.5734L24.2125 30.6887C24.2174 30.6838 24.2203 30.6794 24.2227 30.6739C24.2254 30.6679 24.2295 30.6557 24.2307 30.6353L26.8928 30.791ZM26.0986 32.5739C25.5811 33.0914 24.8863 33.3788 24.1545 33.3788V30.7121C24.17 30.7121 24.1802 30.7093 24.187 30.7065C24.1938 30.7037 24.2026 30.6987 24.213 30.6882L26.0986 32.5739ZM24.1545 33.3788C22.6825 33.3788 21.5013 32.2235 21.4163 30.792L24.0782 30.6339C24.0796 30.6565 24.0889 30.6764 24.1053 30.6921C24.1133 30.6997 24.1214 30.7046 24.1285 30.7075C24.1347 30.7101 24.1426 30.7121 24.1545 30.7121V33.3788ZM23.3812 31.8859C22.9505 32.1187 22.4399 32.2529 21.8944 32.2178L22.0654 29.5567C22.0654 29.5567 22.0682 29.5569 22.0753 29.5553C22.0828 29.5536 22.0958 29.5494 22.1133 29.5399L23.3812 31.8859ZM21.8926 32.2177C20.4122 32.1206 19.327 30.8617 19.327 29.4312H21.9936C21.9936 29.4763 22.01 29.511 22.0305 29.5337C22.0505 29.5557 22.0641 29.5566 22.0671 29.5568L21.8926 32.2177ZM19.327 29.4312V23.0646H21.9936V29.4312H19.327ZM21.8151 23.7311L21.0901 24.9871L18.7806 23.654L19.5055 22.398L21.8151 23.7311ZM21.0913 24.985C20.5761 25.8813 19.6171 26.4325 18.5858 26.4325V23.7659C18.6676 23.7659 18.7423 23.7205 18.7794 23.6561L21.0913 24.985ZM18.5858 26.4325C18.0816 26.4325 17.5853 26.3003 17.1467 26.049L18.4724 23.7352C18.5083 23.7558 18.5477 23.7659 18.5858 23.7659V26.4325ZM17.1408 26.0456C16.5422 25.6986 16.1065 25.1338 15.9267 24.4611L18.503 23.7728C18.5018 23.7682 18.4985 23.7602 18.4921 23.7518C18.4857 23.7435 18.4798 23.7395 18.4783 23.7386L17.1408 26.0456ZM15.9271 24.4626C15.7467 23.7905 15.8412 23.0816 16.1892 22.4805L18.4969 23.8168C18.4988 23.8135 18.5022 23.8059 18.5036 23.7951C18.505 23.7843 18.5038 23.7757 18.5026 23.7713L15.9271 24.4626ZM17.3431 21.8153C16.689 21.9867 16.1995 22.4631 16.1958 22.4693C16.1946 22.4713 16.1928 22.4744 16.1922 22.4754C16.1919 22.4759 16.1913 22.4769 16.1911 22.4772C16.191 22.4775 16.1907 22.4779 16.1907 22.478C16.1905 22.4783 16.1905 22.4782 16.191 22.4773C16.192 22.4758 16.1935 22.4731 16.1957 22.4693C16.2001 22.4617 16.2066 22.4504 16.2153 22.4353C16.2327 22.4053 16.2582 22.3611 16.2908 22.3047C16.3559 22.192 16.4491 22.0306 16.5614 21.8361C16.786 21.4472 17.087 20.9259 17.3925 20.3968C18.0046 19.3368 18.6321 18.2497 18.7031 18.1258L21.0164 19.4525C20.9427 19.5808 20.312 20.6736 19.7019 21.7302C19.3964 22.2594 19.0953 22.7807 18.8707 23.1697C18.7583 23.3643 18.6651 23.5257 18.5999 23.6386C18.5673 23.695 18.5417 23.7393 18.5242 23.7696C18.5155 23.7847 18.5087 23.7964 18.5041 23.8044C18.5018 23.8083 18.4999 23.8116 18.4985 23.814C18.4979 23.8151 18.4971 23.8165 18.4963 23.8178C18.496 23.8183 18.4952 23.8198 18.4942 23.8215C18.4935 23.8226 18.4916 23.8258 18.4904 23.8279C18.4867 23.8341 17.9971 24.3105 17.3431 24.482V21.8153ZM18.6454 18.2385C18.6601 18.2062 18.7066 18.1018 18.7494 18.0056L21.1859 19.0892C21.1453 19.1806 21.0938 19.2963 21.0741 19.3397L18.6454 18.2385ZM18.7494 18.0056C18.7679 17.9639 18.7884 17.9107 18.8177 17.8281L21.3311 18.7192C21.2949 18.8213 21.247 18.9518 21.1859 19.0892L18.7494 18.0056ZM18.8176 17.8285C19.7206 15.279 21.9936 13.6667 24.6966 13.6667V16.3334C23.1277 16.3334 21.8586 17.2298 21.3312 18.7188L18.8176 17.8285ZM24.6966 13.6667C28.3063 13.6667 31.0601 16.8143 31.0601 20.4546H28.3935C28.3935 18.0796 26.6343 16.3334 24.6966 16.3334V13.6667ZM31.0601 20.4546L31.0604 28.2289L28.3937 28.229L28.3935 20.4547L31.0601 20.4546ZM31.0604 28.229C31.0604 28.9602 30.7735 29.6546 30.2568 30.1722L28.3694 28.2884C28.38 28.2778 28.3851 28.2688 28.388 28.2618C28.3909 28.2548 28.3937 28.2445 28.3937 28.229H31.0604ZM30.2559 30.1731C29.7383 30.6907 29.0435 30.9781 28.3116 30.9781V28.3114C28.3273 28.3114 28.3375 28.3085 28.3443 28.3057C28.3511 28.3029 28.3599 28.2979 28.3703 28.2875L30.2559 30.1731ZM27.6128 28.5092L27.6129 28.5091L29.0104 30.7802L29.0104 30.7803L27.6128 28.5092ZM24.6966 17.0855C23.4289 17.0855 22.4676 17.7637 22.0401 18.9704L19.5265 18.08C20.3293 15.814 22.2937 14.4189 24.6966 14.4189V17.0855ZM22.0391 18.9733C21.997 19.0913 21.9423 19.2402 21.8732 19.3954L19.4371 18.3109C19.4636 18.2512 19.4909 18.1797 19.5275 18.0771L22.0391 18.9733ZM21.8729 19.3961C21.8119 19.5331 21.7607 19.6487 21.7216 19.727C21.6973 19.7757 21.6579 19.8506 21.6009 19.9336C21.5431 20.0177 21.486 20.0811 21.4813 20.0864L19.4732 18.3318C19.4763 18.3283 19.4753 18.3294 19.4737 18.3313C19.4717 18.3336 19.4665 18.3397 19.4597 18.348C19.4527 18.3565 19.4438 18.3676 19.4338 18.3808C19.4237 18.3941 19.4135 18.4083 19.4032 18.4232C19.3823 18.4536 19.3662 18.4802 19.3548 18.5004C19.3441 18.5191 19.3376 18.5322 19.3361 18.5351C19.3346 18.5381 19.3356 18.5363 19.3401 18.5266C19.3445 18.5172 19.3507 18.5037 19.3596 18.484C19.3684 18.4645 19.379 18.4409 19.3921 18.4117C19.4051 18.3826 19.42 18.3493 19.4374 18.3102L21.8729 19.3961ZM19.6058 20.2182L19.6006 20.2138L21.3436 18.1956L21.3488 18.2L19.6058 20.2182ZM21.6502 19.829C21.4415 20.2228 20.8458 21.2539 19.1489 24.1919L16.8397 22.8582C18.5604 19.8789 19.1153 18.9174 19.294 18.5803L21.6502 19.829ZM19.1484 24.1929C19.255 24.0085 19.2848 23.7861 19.2299 23.5796L16.6527 24.2645C16.5262 23.7885 16.5932 23.2843 16.8403 22.8573L19.1484 24.1929ZM19.2288 23.5754C19.1739 23.3716 19.0391 23.1934 18.8515 23.0851L17.5183 25.3946C17.09 25.1473 16.7812 24.742 16.6538 24.2687L19.2288 23.5754ZM18.849 23.0837C18.6972 22.9965 18.5496 22.9971 18.4477 23.0245C18.3462 23.0519 18.216 23.1259 18.1269 23.2812L20.4397 24.6086C19.8586 25.6211 18.5306 25.976 17.5208 25.396L18.849 23.0837ZM18.1287 23.278L19.5562 20.8066L21.8653 22.1403L20.4379 24.6118L18.1287 23.278ZM19.557 20.8052C19.9421 20.1403 20.7282 19.8075 21.4822 20.0116L20.7856 22.5857C21.2088 22.7002 21.65 22.5121 21.8645 22.1417L19.557 20.8052ZM21.4789 20.0107C22.227 20.2111 22.7459 20.889 22.7459 21.6619H20.0793C20.0793 22.0947 20.3697 22.4743 20.7889 22.5866L21.4789 20.0107ZM22.7459 21.6619V29.4315H20.0793V21.6619H22.7459ZM22.7459 29.4315C22.7459 29.2795 22.6897 29.1414 22.5973 29.0357C22.505 28.9302 22.3422 28.8212 22.1167 28.8064L21.9416 31.4673C20.8192 31.3934 20.0793 30.4157 20.0793 29.4315H22.7459ZM22.0996 28.8053C21.9421 28.797 21.7496 28.8547 21.6034 29.0007L23.4874 30.888C23.0664 31.3082 22.5083 31.4974 21.9588 31.4683L22.0996 28.8053ZM21.6026 29.0015C21.476 29.1281 21.4057 29.3014 21.4057 29.4753H24.0724C24.0724 30.0048 23.8645 30.5109 23.4882 30.8871L21.6026 29.0015ZM21.4057 29.4753V24.3939H24.0724V29.4753H21.4057ZM21.4057 24.3939C21.4057 23.4497 22.1711 22.6843 23.1153 22.6843V25.351C23.6439 25.351 24.0724 24.9225 24.0724 24.3939H21.4057ZM23.1153 22.6843C24.0589 22.6843 24.8249 23.4489 24.8249 24.3939H22.1582C22.1582 24.9228 22.5872 25.351 23.1153 25.351V22.6843ZM24.8249 24.3939L24.8246 30.6303L22.158 30.6302L22.1582 24.3938L24.8249 24.3939ZM24.8246 30.6303C24.8246 30.2595 24.5252 29.9601 24.1545 29.9601V32.6268C23.0525 32.6268 22.158 31.7323 22.158 30.6303H24.8246ZM24.1545 29.9601C23.981 29.9601 23.8084 30.03 23.6822 30.1561L25.566 32.0435C25.1895 32.4193 24.6833 32.6268 24.1545 32.6268V29.9601ZM23.6804 30.1579C23.5543 30.2842 23.4844 30.4567 23.4844 30.6303H26.1511C26.1511 31.1591 25.9436 31.6652 25.5678 32.0417L23.6804 30.1579ZM23.4844 30.6303V24.3939H26.1511V30.6303H23.4844ZM23.4844 24.3939C23.4844 23.4503 24.249 22.6843 25.194 22.6843V25.351C25.7229 25.351 26.1511 24.9219 26.1511 24.3939H23.4844ZM25.194 22.6843C26.1376 22.6843 26.9036 23.4489 26.9036 24.3939H24.2369C24.2369 24.9228 24.6659 25.351 25.194 25.351V22.6843ZM26.9036 24.3939L26.9033 29.4169L24.2367 29.4168L24.2369 24.3938L26.9036 24.3939ZM26.9033 29.4168V29.4752H24.2367V29.4168H26.9033ZM26.9033 29.4752C26.9033 29.1036 26.6033 28.8049 26.2334 28.8049V31.4715C25.1318 31.4715 24.2367 30.5777 24.2367 29.4752H26.9033ZM26.2334 28.8049C26.0563 28.8049 25.8847 28.8769 25.7619 28.9993L27.644 30.8884C27.2696 31.2614 26.7654 31.4715 26.2334 31.4715V28.8049ZM25.7611 29.0001C25.6335 29.1274 25.5633 29.3014 25.5633 29.475H28.23C28.23 30.0044 28.0222 30.511 27.6449 30.8875L25.7611 29.0001ZM25.5633 29.475V24.3936H28.23V29.475H25.5633ZM25.5633 24.3936C25.5633 23.45 26.3279 22.684 27.2729 22.684V25.3507C27.8018 25.3507 28.23 24.9217 28.23 24.3936H25.5633ZM27.2729 22.684C28.2165 22.684 28.9825 23.4487 28.9825 24.3936H26.3158C26.3158 24.9225 26.7448 25.3507 27.2729 25.3507V22.684ZM28.9825 24.3938L28.982 28.2293L26.3153 28.229L26.3158 24.3935L28.9825 24.3938ZM28.982 28.2292C28.982 27.8593 28.6832 27.5593 28.3116 27.5593V30.2259C27.2092 30.2259 26.3153 29.3308 26.3153 28.2292H28.982ZM28.3116 27.5593C28.1367 27.5593 27.9642 27.6301 27.8388 27.7553L29.7226 29.6426C29.3475 30.0171 28.8423 30.2259 28.3116 30.2259V27.5593ZM27.8379 27.7561C27.7109 27.8831 27.6413 28.0564 27.6413 28.2292H30.3079C30.3079 28.7572 30.1011 29.2641 29.7235 29.6418L27.8379 27.7561ZM27.6413 28.2291L27.6415 20.4548L30.3082 20.4549L30.3079 28.2292L27.6413 28.2291ZM27.6415 20.4548C27.6415 18.4769 26.2034 17.0856 24.6966 17.0856V14.4189C27.908 14.4189 30.3082 17.2472 30.3082 20.4548H27.6415ZM23.4146 15.386L23.4146 15.3859L25.9786 16.1185L25.9786 16.1186L23.4146 15.386Z" fill="#4CAF4F" mask="url(#path-1-inside-1_16_1406)"/>
<path d="M11.9633 32.214L11.8881 32.1739C11.8705 32.2055 11.8206 32.294 11.7474 32.4259C11.7735 32.4389 11.7993 32.4511 11.8256 32.461C11.8705 32.3802 11.9166 32.298 11.9633 32.214Z" fill="#4CAF4F" stroke="#4CAF4F" stroke-width="1.33333"/>
<path d="M27.8259 34.0758L27.8279 34.0768C27.8303 34.0785 27.8322 34.0809 27.8347 34.0826C27.8316 34.0805 27.8289 34.0779 27.8259 34.0758Z" fill="#4CAF4F" stroke="#4CAF4F" stroke-width="1.33333"/>
<g clip-path="url(#clip0_16_1406)">
<path d="M65.3423 24.4205V21.0298L73.8438 7.63636H76.767V12.3295H75.0369L69.6776 20.8111V20.9702H81.7585V24.4205H65.3423ZM75.1165 28V23.3864L75.196 21.8849V7.63636H79.233V28H75.1165ZM92.4425 28.2784C91.3951 28.2718 90.3842 28.0961 89.4098 27.7514C88.442 27.4067 87.5736 26.8466 86.8047 26.071C86.0357 25.2955 85.4259 24.268 84.9751 22.9886C84.531 21.7093 84.3089 20.1383 84.3089 18.2756C84.3156 16.5653 84.5111 15.0374 84.8956 13.6918C85.2867 12.3395 85.8435 11.1927 86.5661 10.2514C87.2952 9.31013 88.1669 8.59422 89.1811 8.10369C90.1953 7.60653 91.3322 7.35795 92.5916 7.35795C93.9505 7.35795 95.1503 7.62311 96.1911 8.15341C97.2318 8.67708 98.067 9.38968 98.6967 10.2912C99.3331 11.1927 99.7176 12.2036 99.8501 13.3239H95.6044C95.4387 12.6146 95.0907 12.0578 94.5604 11.6534C94.0301 11.2491 93.3738 11.0469 92.5916 11.0469C91.2659 11.0469 90.2583 11.6236 89.5689 12.777C88.8861 13.9304 88.5381 15.4981 88.5249 17.4801H88.6641C88.969 16.8769 89.38 16.3632 89.897 15.9389C90.4207 15.508 91.014 15.1799 91.6768 14.9545C92.3464 14.7225 93.0523 14.6065 93.7947 14.6065C95.0012 14.6065 96.075 14.8916 97.0163 15.4616C97.9576 16.0251 98.7 16.8007 99.2436 17.7884C99.7872 18.776 100.059 19.9062 100.059 21.179C100.059 22.5578 99.7375 23.7841 99.0945 24.858C98.4581 25.9318 97.5665 26.7737 96.4197 27.3835C95.2796 27.9867 93.9538 28.285 92.4425 28.2784ZM92.4226 24.8977C93.0855 24.8977 93.6787 24.7386 94.2024 24.4205C94.7261 24.1023 95.1371 23.6714 95.4354 23.1278C95.7337 22.5843 95.8828 21.9744 95.8828 21.2983C95.8828 20.6222 95.7337 20.0156 95.4354 19.4787C95.1437 18.9418 94.7393 18.5142 94.2223 18.196C93.7053 17.8778 93.1153 17.7188 92.4524 17.7188C91.9553 17.7188 91.4946 17.8116 91.0703 17.9972C90.6527 18.1828 90.2848 18.4413 89.9666 18.7727C89.6551 19.1042 89.4098 19.4886 89.2308 19.9261C89.0518 20.357 88.9624 20.8177 88.9624 21.3082C88.9624 21.9645 89.1115 22.5644 89.4098 23.108C89.7147 23.6515 90.1257 24.0857 90.6428 24.4105C91.1664 24.7353 91.7597 24.8977 92.4226 24.8977ZM106.907 25.2159L106.798 26.3097C106.712 27.1847 106.546 28.0563 106.301 28.9247C106.062 29.7997 105.81 30.5919 105.545 31.3011C105.287 32.0104 105.078 32.5672 104.919 32.9716H102.174C102.274 32.5805 102.41 32.0336 102.582 31.331C102.754 30.6349 102.917 29.8527 103.069 28.9844C103.222 28.116 103.318 27.2311 103.358 26.3295L103.407 25.2159H106.907ZM117.611 28.2784C116.126 28.2784 114.804 28.0232 113.644 27.5128C112.49 26.9957 111.579 26.2865 110.909 25.3849C110.247 24.4768 109.905 23.4295 109.885 22.2429H114.221C114.247 22.7401 114.409 23.1776 114.708 23.5554C115.013 23.9266 115.417 24.215 115.921 24.4205C116.425 24.6259 116.991 24.7287 117.621 24.7287C118.277 24.7287 118.857 24.6127 119.361 24.3807C119.865 24.1487 120.259 23.8272 120.544 23.4162C120.829 23.0052 120.972 22.5312 120.972 21.9943C120.972 21.4508 120.819 20.9702 120.515 20.5526C120.216 20.1283 119.785 19.7969 119.222 19.5582C118.665 19.3196 118.002 19.2003 117.233 19.2003H115.334V16.0384H117.233C117.883 16.0384 118.456 15.9257 118.953 15.7003C119.457 15.4749 119.848 15.1634 120.127 14.7656C120.405 14.3613 120.544 13.8906 120.544 13.3537C120.544 12.8433 120.422 12.3958 120.176 12.0114C119.938 11.6203 119.6 11.3153 119.162 11.0966C118.731 10.8778 118.228 10.7685 117.651 10.7685C117.068 10.7685 116.534 10.8745 116.05 11.0866C115.566 11.2921 115.178 11.5871 114.887 11.9716C114.595 12.3561 114.439 12.8068 114.419 13.3239H110.293C110.313 12.1506 110.648 11.1165 111.297 10.2216C111.947 9.3267 112.822 8.62737 113.922 8.12358C115.029 7.61316 116.279 7.35795 117.671 7.35795C119.076 7.35795 120.306 7.61316 121.36 8.12358C122.414 8.634 123.232 9.32339 123.816 10.1918C124.406 11.0535 124.697 12.0213 124.691 13.0952C124.697 14.2353 124.343 15.1866 123.627 15.9489C122.917 16.7112 121.993 17.1951 120.853 17.4006V17.5597C122.351 17.7519 123.491 18.2723 124.273 19.1207C125.062 19.9626 125.453 21.0166 125.446 22.2827C125.453 23.4427 125.118 24.4735 124.442 25.375C123.773 26.2765 122.848 26.9858 121.668 27.5028C120.488 28.0199 119.136 28.2784 117.611 28.2784ZM128.541 28V24.8977L135.79 18.1861C136.406 17.5895 136.923 17.0526 137.341 16.5753C137.765 16.098 138.087 15.6307 138.305 15.1733C138.524 14.7093 138.634 14.2088 138.634 13.6719C138.634 13.0753 138.498 12.5616 138.226 12.1307C137.954 11.6932 137.583 11.3584 137.112 11.1264C136.642 10.8878 136.108 10.7685 135.511 10.7685C134.888 10.7685 134.345 10.8944 133.881 11.1463C133.417 11.3982 133.059 11.7595 132.807 12.2301C132.555 12.7008 132.429 13.2609 132.429 13.9105H128.342C128.342 12.5781 128.644 11.4214 129.247 10.4403C129.85 9.45928 130.696 8.70028 131.783 8.16335C132.87 7.62642 134.123 7.35795 135.541 7.35795C137 7.35795 138.269 7.61648 139.349 8.13352C140.437 8.64394 141.282 9.35322 141.885 10.2614C142.488 11.1695 142.79 12.2102 142.79 13.3835C142.79 14.1525 142.637 14.9115 142.332 15.6605C142.034 16.4096 141.5 17.2415 140.732 18.1562C139.963 19.0644 138.879 20.1548 137.48 21.4276L134.507 24.3409V24.4801H143.058V28H128.541ZM153.775 28.2784C152.243 28.2784 150.881 28.0298 149.688 27.5327C148.501 27.0289 147.57 26.3428 146.894 25.4744C146.218 24.6061 145.88 23.6217 145.88 22.5213C145.88 21.6728 146.072 20.8939 146.456 20.1847C146.847 19.4688 147.378 18.8755 148.047 18.4048C148.717 17.9276 149.466 17.6226 150.294 17.4901V17.3509C149.207 17.1321 148.326 16.6051 147.65 15.7699C146.973 14.928 146.635 13.9503 146.635 12.8366C146.635 11.7827 146.944 10.8447 147.56 10.0227C148.176 9.19413 149.022 8.54451 150.096 8.07386C151.176 7.59659 152.402 7.35795 153.775 7.35795C155.147 7.35795 156.37 7.59659 157.444 8.07386C158.524 8.55114 159.373 9.20407 159.989 10.0327C160.605 10.8546 160.917 11.7893 160.924 12.8366C160.917 13.9569 160.572 14.9347 159.89 15.7699C159.207 16.6051 158.332 17.1321 157.265 17.3509V17.4901C158.08 17.6226 158.819 17.9276 159.482 18.4048C160.151 18.8755 160.682 19.4688 161.073 20.1847C161.471 20.8939 161.673 21.6728 161.679 22.5213C161.673 23.6217 161.331 24.6061 160.655 25.4744C159.979 26.3428 159.044 27.0289 157.851 27.5327C156.665 28.0298 155.306 28.2784 153.775 28.2784ZM153.775 25.1165C154.457 25.1165 155.054 24.9938 155.564 24.7486C156.075 24.4967 156.472 24.152 156.757 23.7145C157.049 23.2704 157.195 22.7599 157.195 22.1832C157.195 21.5933 157.046 21.0729 156.748 20.6222C156.449 20.1648 156.045 19.8068 155.534 19.5483C155.024 19.2831 154.437 19.1506 153.775 19.1506C153.118 19.1506 152.532 19.2831 152.015 19.5483C151.498 19.8068 151.09 20.1648 150.792 20.6222C150.5 21.0729 150.354 21.5933 150.354 22.1832C150.354 22.7599 150.497 23.2704 150.782 23.7145C151.067 24.152 151.468 24.4967 151.985 24.7486C152.502 24.9938 153.098 25.1165 153.775 25.1165ZM153.775 16.0185C154.345 16.0185 154.852 15.9025 155.296 15.6705C155.74 15.4384 156.088 15.117 156.34 14.706C156.592 14.295 156.718 13.821 156.718 13.2841C156.718 12.7538 156.592 12.2898 156.34 11.892C156.088 11.4877 155.743 11.1728 155.306 10.9474C154.868 10.7154 154.358 10.5994 153.775 10.5994C153.198 10.5994 152.687 10.7154 152.243 10.9474C151.799 11.1728 151.451 11.4877 151.199 11.892C150.954 12.2898 150.831 12.7538 150.831 13.2841C150.831 13.821 150.957 14.295 151.209 14.706C151.461 15.117 151.809 15.4384 152.253 15.6705C152.697 15.9025 153.204 16.0185 153.775 16.0185Z" fill="#4D4D4D"/>
<path d="M74.7727 46H73.3636C73.2803 45.5947 73.1345 45.2386 72.9261 44.9318C72.7216 44.625 72.4716 44.3674 72.1761 44.1591C71.8845 43.947 71.5606 43.7879 71.2045 43.6818C70.8485 43.5758 70.4773 43.5227 70.0909 43.5227C69.3864 43.5227 68.7481 43.7008 68.1761 44.0568C67.608 44.4129 67.1553 44.9375 66.8182 45.6307C66.4848 46.3239 66.3182 47.1742 66.3182 48.1818C66.3182 49.1894 66.4848 50.0398 66.8182 50.733C67.1553 51.4261 67.608 51.9508 68.1761 52.3068C68.7481 52.6629 69.3864 52.8409 70.0909 52.8409C70.4773 52.8409 70.8485 52.7879 71.2045 52.6818C71.5606 52.5758 71.8845 52.4186 72.1761 52.2102C72.4716 51.9981 72.7216 51.7386 72.9261 51.4318C73.1345 51.1212 73.2803 50.7652 73.3636 50.3636H74.7727C74.6667 50.9583 74.4735 51.4905 74.1932 51.9602C73.9129 52.4299 73.5644 52.8295 73.1477 53.1591C72.7311 53.4848 72.2633 53.733 71.7443 53.9034C71.2292 54.0739 70.678 54.1591 70.0909 54.1591C69.0985 54.1591 68.2159 53.9167 67.4432 53.4318C66.6705 52.947 66.0625 52.2576 65.6193 51.3636C65.1761 50.4697 64.9545 49.4091 64.9545 48.1818C64.9545 46.9545 65.1761 45.8939 65.6193 45C66.0625 44.1061 66.6705 43.4167 67.4432 42.9318C68.2159 42.447 69.0985 42.2045 70.0909 42.2045C70.678 42.2045 71.2292 42.2898 71.7443 42.4602C72.2633 42.6307 72.7311 42.8807 73.1477 43.2102C73.5644 43.536 73.9129 43.9337 74.1932 44.4034C74.4735 44.8693 74.6667 45.4015 74.7727 46ZM78.2088 42.3636V54H76.8679V42.3636H78.2088ZM86.1648 50.4318V45.2727H87.5057V54H86.1648V52.5227H86.0739C85.8693 52.9659 85.5511 53.3428 85.1193 53.6534C84.6875 53.9602 84.142 54.1136 83.483 54.1136C82.9375 54.1136 82.4527 53.9943 82.0284 53.7557C81.6042 53.5133 81.2708 53.1496 81.0284 52.6648C80.786 52.1761 80.6648 51.5606 80.6648 50.8182V45.2727H82.0057V50.7273C82.0057 51.3636 82.1837 51.8712 82.5398 52.25C82.8996 52.6288 83.358 52.8182 83.9148 52.8182C84.2481 52.8182 84.5871 52.733 84.9318 52.5625C85.2803 52.392 85.572 52.1307 85.8068 51.7784C86.0455 51.4261 86.1648 50.9773 86.1648 50.4318ZM90.1435 54V42.3636H91.4844V46.6591H91.598C91.6965 46.5076 91.8329 46.3144 92.0071 46.0795C92.1851 45.8409 92.4389 45.6288 92.7685 45.4432C93.1018 45.2538 93.5526 45.1591 94.1207 45.1591C94.8556 45.1591 95.5033 45.3428 96.0639 45.7102C96.6245 46.0777 97.062 46.5985 97.3764 47.2727C97.6908 47.947 97.848 48.7424 97.848 49.6591C97.848 50.5833 97.6908 51.3845 97.3764 52.0625C97.062 52.7367 96.6264 53.2595 96.0696 53.6307C95.5128 53.9981 94.8707 54.1818 94.1435 54.1818C93.5829 54.1818 93.134 54.089 92.7969 53.9034C92.4598 53.714 92.2003 53.5 92.0185 53.2614C91.8366 53.0189 91.6965 52.8182 91.598 52.6591H91.4389V54H90.1435ZM91.4616 49.6364C91.4616 50.2955 91.5582 50.8769 91.7514 51.3807C91.9446 51.8807 92.2268 52.2727 92.598 52.5568C92.9692 52.8371 93.4238 52.9773 93.9616 52.9773C94.5223 52.9773 94.9901 52.8295 95.3651 52.5341C95.7438 52.2348 96.0279 51.8333 96.2173 51.3295C96.4105 50.822 96.5071 50.2576 96.5071 49.6364C96.5071 49.0227 96.4124 48.4697 96.223 47.9773C96.0374 47.4811 95.7552 47.089 95.3764 46.8011C95.0014 46.5095 94.5298 46.3636 93.9616 46.3636C93.4162 46.3636 92.9579 46.5019 92.5866 46.7784C92.2154 47.0511 91.9351 47.4337 91.7457 47.9261C91.5563 48.4148 91.4616 48.9848 91.4616 49.6364ZM106.081 47.2273L104.876 47.5682C104.801 47.3674 104.689 47.1723 104.541 46.983C104.397 46.7898 104.2 46.6307 103.95 46.5057C103.7 46.3807 103.38 46.3182 102.99 46.3182C102.456 46.3182 102.011 46.4413 101.655 46.6875C101.303 46.9299 101.126 47.2386 101.126 47.6136C101.126 47.947 101.248 48.2102 101.49 48.4034C101.732 48.5966 102.111 48.7576 102.626 48.8864L103.922 49.2045C104.702 49.3939 105.284 49.6837 105.666 50.0739C106.049 50.4602 106.24 50.9583 106.24 51.5682C106.24 52.0682 106.096 52.5152 105.808 52.9091C105.524 53.303 105.126 53.6136 104.615 53.8409C104.104 54.0682 103.509 54.1818 102.831 54.1818C101.941 54.1818 101.204 53.9886 100.621 53.6023C100.037 53.2159 99.6681 52.6515 99.5128 51.9091L100.786 51.5909C100.907 52.0606 101.136 52.4129 101.473 52.6477C101.814 52.8826 102.259 53 102.808 53C103.433 53 103.929 52.8674 104.297 52.6023C104.668 52.3333 104.854 52.0114 104.854 51.6364C104.854 51.3333 104.748 51.0795 104.536 50.875C104.323 50.6667 103.998 50.5114 103.558 50.4091L102.104 50.0682C101.304 49.8788 100.717 49.5852 100.342 49.1875C99.9711 48.786 99.7855 48.2841 99.7855 47.6818C99.7855 47.1894 99.9238 46.7538 100.2 46.375C100.481 45.9962 100.861 45.6989 101.342 45.483C101.827 45.267 102.376 45.1591 102.99 45.1591C103.854 45.1591 104.532 45.3485 105.024 45.7273C105.52 46.1061 105.873 46.6061 106.081 47.2273Z" fill="#717171"/>
</g>
<defs>
<clipPath id="clip0_16_1406">
<rect width="191" height="60" fill="white" transform="translate(64)"/>
</clipPath>
</defs>
</svg>
